<svg width="511" height="36" viewBox="0 0 511 36" fill="none" xmlns="http://www.w3.org/2000/svg">
<path d="M19.6344 3.51201C19.4664 5.55201 19.3824 7.37601 19.3824 8.98401C19.3824 10.112 19.4184 11.024 19.4904 11.72H18.6624C18.1824 9.00801 17.4624 7.10001 16.5024 5.99601C15.5424 4.89201 14.1984 4.34001 12.4704 4.34001H11.2824C10.5384 4.34001 9.99839 4.40001 9.66239 4.52001C9.32639 4.64001 9.09839 4.88001 8.97839 5.24001C8.85839 5.57601 8.79839 6.12801 8.79839 6.89601V15.968H10.0584C11.3304 15.968 12.2904 15.5 12.9384 14.564C13.6104 13.628 14.0784 12.512 14.3424 11.216H15.1704C15.0984 12.224 15.0624 13.352 15.0624 14.6V16.328C15.0624 17.552 15.1344 19.256 15.2784 21.44H14.4504C13.9464 18.272 12.4824 16.688 10.0584 16.688H8.79839V24.968C8.79839 25.928 8.89439 26.636 9.08639 27.092C9.30239 27.524 9.66239 27.812 10.1664 27.956C10.6944 28.1 11.5224 28.184 12.6504 28.208V29C9.69839 28.928 7.50239 28.892 6.06239 28.892C4.86239 28.892 3.35039 28.916 1.52639 28.964L0.37439 29V28.28C1.16639 28.232 1.74239 28.136 2.10239 27.992C2.48639 27.848 2.73839 27.572 2.85839 27.164C3.00239 26.756 3.07439 26.096 3.07439 25.184V7.32801C3.07439 6.41601 3.00239 5.75601 2.85839 5.34801C2.73839 4.94001 2.48639 4.66401 2.10239 4.52001C1.74239 4.37601 1.16639 4.28001 0.37439 4.23201V3.51201C2.96639 3.58401 6.87839 3.62001 12.1104 3.62001C15.6384 3.62001 18.1464 3.58401 19.6344 3.51201Z" fill="black"/>
<path d="M40.5175 25.976C40.8295 26.768 41.1895 27.344 41.5975 27.704C42.0055 28.064 42.4015 28.256 42.7855 28.28V29C41.3455 28.928 39.5215 28.892 37.3135 28.892C34.8655 28.892 33.0415 28.928 31.8415 29V28.28C32.7535 28.232 33.4015 28.124 33.7855 27.956C34.1695 27.764 34.3615 27.44 34.3615 26.984C34.3615 26.552 34.2175 25.976 33.9295 25.256L31.7695 19.352H23.9215L22.9855 21.836C22.3135 23.564 21.9775 24.896 21.9775 25.832C21.9775 26.72 22.2415 27.344 22.7695 27.704C23.3215 28.04 24.1255 28.232 25.1815 28.28V29C23.5495 28.928 22.0615 28.892 20.7175 28.892C19.6135 28.892 18.7015 28.928 17.9815 29V28.28C19.1575 28.064 20.1895 26.804 21.0775 24.5L29.2855 3.44001C29.5495 3.46401 29.9695 3.47601 30.5455 3.47601C31.1215 3.47601 31.5295 3.46401 31.7695 3.44001L40.5175 25.976ZM31.5175 18.632L27.9535 8.91201L24.2095 18.632H31.5175Z" fill="black"/>
<path d="M66.7781 4.23201C65.9861 4.35201 65.3981 4.55601 65.0141 4.84401C64.6541 5.13201 64.4021 5.58801 64.2581 6.21201C64.1381 6.83601 64.0781 7.76001 64.0781 8.98401V29.072L63.2141 29.036L62.2421 29.072L46.6181 9.27201V23.096C46.6181 24.512 46.6901 25.556 46.8341 26.228C46.9781 26.876 47.2901 27.356 47.7701 27.668C48.2501 27.956 49.0301 28.16 50.1101 28.28V29C49.1741 28.928 47.8781 28.892 46.2221 28.892C44.9021 28.892 43.8581 28.928 43.0901 29V28.28C43.8821 28.16 44.4581 27.956 44.8181 27.668C45.2021 27.38 45.4541 26.924 45.5741 26.3C45.7181 25.676 45.7901 24.752 45.7901 23.528V7.32801C45.7901 6.41601 45.7181 5.75601 45.5741 5.34801C45.4541 4.94001 45.2021 4.66401 44.8181 4.52001C44.4581 4.37601 43.8821 4.28001 43.0901 4.23201V3.51201C43.8581 3.58401 44.9021 3.62001 46.2221 3.62001C47.4221 3.62001 48.4541 3.58401 49.3181 3.51201L63.2501 20.684V9.41601C63.2501 8.00001 63.1781 6.96801 63.0341 6.32001C62.8901 5.64801 62.5781 5.16801 62.0981 4.88001C61.6181 4.56801 60.8381 4.35201 59.7581 4.23201V3.51201C60.6941 3.58401 61.9901 3.62001 63.6461 3.62001C64.9901 3.62001 66.0341 3.58401 66.7781 3.51201V4.23201Z" fill="black"/>
<path d="M96.8026 25.976C97.1146 26.768 97.4746 27.344 97.8826 27.704C98.2906 28.064 98.6866 28.256 99.0706 28.28V29C97.6306 28.928 95.8066 28.892 93.5986 28.892C91.1506 28.892 89.3266 28.928 88.1266 29V28.28C89.0386 28.232 89.6866 28.124 90.0706 27.956C90.4546 27.764 90.6466 27.44 90.6466 26.984C90.6466 26.552 90.5026 25.976 90.2146 25.256L88.0546 19.352H80.2066L79.2706 21.836C78.5986 23.564 78.2626 24.896 78.2626 25.832C78.2626 26.72 78.5266 27.344 79.0546 27.704C79.6066 28.04 80.4106 28.232 81.4666 28.28V29C79.8346 28.928 78.3466 28.892 77.0026 28.892C75.8986 28.892 74.9866 28.928 74.2666 29V28.28C75.4426 28.064 76.4746 26.804 77.3626 24.5L85.5706 3.44001C85.8346 3.46401 86.2546 3.47601 86.8306 3.47601C87.4066 3.47601 87.8146 3.46401 88.0546 3.44001L96.8026 25.976ZM87.8026 18.632L84.2386 8.91201L80.4946 18.632H87.8026Z" fill="black"/>
<path d="M123.747 27.416C123.099 28.16 122.403 28.688 121.659 29C120.915 29.336 120.015 29.504 118.959 29.504C117.567 29.504 116.463 29.216 115.647 28.64C114.855 28.04 114.339 27.032 114.099 25.616L113.451 22.016C113.139 20.264 112.755 18.98 112.299 18.164C111.867 17.324 111.135 16.904 110.103 16.904H107.763V25.184C107.763 26.096 107.823 26.756 107.943 27.164C108.087 27.572 108.339 27.848 108.699 27.992C109.059 28.136 109.647 28.232 110.463 28.28V29C109.167 28.928 107.355 28.892 105.027 28.892C102.459 28.892 100.563 28.928 99.3392 29V28.28C100.131 28.232 100.707 28.136 101.067 27.992C101.451 27.848 101.703 27.572 101.823 27.164C101.967 26.756 102.039 26.096 102.039 25.184V7.32801C102.039 6.41601 101.967 5.75601 101.823 5.34801C101.703 4.94001 101.451 4.66401 101.067 4.52001C100.707 4.37601 100.131 4.28001 99.3392 4.23201V3.51201C100.563 3.58401 102.387 3.62001 104.811 3.62001L108.807 3.58401C109.287 3.56001 109.839 3.54801 110.463 3.54801C113.775 3.54801 116.259 4.08801 117.915 5.16801C119.595 6.24801 120.435 7.79601 120.435 9.81201C120.435 11.516 119.811 13.016 118.563 14.312C117.315 15.608 115.251 16.424 112.371 16.76C114.531 16.952 116.139 17.42 117.195 18.164C118.251 18.908 118.935 20.024 119.247 21.512L120.075 25.22C120.267 26.18 120.483 26.852 120.723 27.236C120.987 27.62 121.347 27.812 121.803 27.812C122.091 27.788 122.331 27.716 122.523 27.596C122.739 27.476 122.979 27.272 123.243 26.984L123.747 27.416ZM109.995 4.23201C109.347 4.23201 108.867 4.31601 108.555 4.48401C108.267 4.65201 108.063 4.95201 107.943 5.38401C107.823 5.81601 107.763 6.46401 107.763 7.32801V16.184H109.311C111.279 16.184 112.623 15.668 113.343 14.636C114.087 13.58 114.459 12.104 114.459 10.208C114.459 8.24001 114.111 6.75201 113.415 5.74401C112.719 4.73601 111.579 4.23201 109.995 4.23201Z" fill="black"/>
<path d="M146.048 3.51201C145.88 5.79201 145.796 7.83201 145.796 9.63201C145.796 10.76 145.832 11.672 145.904 12.368H145.076C144.5 9.41601 143.708 7.34001 142.7 6.14001C141.716 4.94001 140.36 4.34001 138.632 4.34001H137.804V24.896C137.804 25.904 137.9 26.636 138.092 27.092C138.308 27.548 138.668 27.86 139.172 28.028C139.7 28.172 140.528 28.256 141.656 28.28V29C138.632 28.928 136.352 28.892 134.816 28.892C133.304 28.892 131.108 28.928 128.228 29V28.28C129.356 28.256 130.172 28.172 130.676 28.028C131.204 27.86 131.564 27.548 131.756 27.092C131.972 26.636 132.08 25.904 132.08 24.896V4.34001H131.288C130.136 4.34001 129.152 4.59201 128.336 5.09601C127.544 5.60001 126.86 6.44001 126.284 7.61601C125.708 8.76801 125.216 10.352 124.808 12.368H123.98C124.052 11.672 124.088 10.76 124.088 9.63201C124.088 7.83201 124.004 5.79201 123.836 3.51201C126.02 3.58401 129.728 3.62001 134.96 3.62001C140.192 3.62001 143.888 3.58401 146.048 3.51201Z" fill="black"/>
<path d="M152.202 9.88401C153.138 9.88401 153.882 10.136 154.434 10.64C154.986 11.12 155.262 11.792 155.262 12.656C155.262 13.52 154.986 14.204 154.434 14.708C153.882 15.188 153.138 15.428 152.202 15.428C151.266 15.428 150.522 15.188 149.97 14.708C149.418 14.204 149.142 13.52 149.142 12.656C149.142 11.792 149.418 11.12 149.97 10.64C150.522 10.136 151.266 9.88401 152.202 9.88401ZM152.202 23.96C153.138 23.96 153.882 24.212 154.434 24.716C154.986 25.196 155.262 25.868 155.262 26.732C155.262 27.596 154.986 28.28 154.434 28.784C153.882 29.264 153.138 29.504 152.202 29.504C151.266 29.504 150.522 29.264 149.97 28.784C149.418 28.28 149.142 27.596 149.142 26.732C149.142 25.868 149.418 25.196 149.97 24.716C150.522 24.212 151.266 23.96 152.202 23.96Z" fill="black"/>
<path d="M186.416 25.976C186.728 26.768 187.088 27.344 187.496 27.704C187.904 28.064 188.3 28.256 188.684 28.28V29C187.244 28.928 185.42 28.892 183.212 28.892C180.764 28.892 178.94 28.928 177.74 29V28.28C178.652 28.232 179.3 28.124 179.684 27.956C180.068 27.764 180.26 27.44 180.26 26.984C180.26 26.552 180.116 25.976 179.828 25.256L177.668 19.352H169.82L168.884 21.836C168.212 23.564 167.876 24.896 167.876 25.832C167.876 26.72 168.14 27.344 168.668 27.704C169.22 28.04 170.024 28.232 171.08 28.28V29C169.448 28.928 167.96 28.892 166.616 28.892C165.512 28.892 164.6 28.928 163.88 29V28.28C165.056 28.064 166.088 26.804 166.976 24.5L175.184 3.44001C175.448 3.46401 175.868 3.47601 176.444 3.47601C177.02 3.47601 177.428 3.46401 177.668 3.44001L186.416 25.976ZM177.416 18.632L173.852 8.91201L170.108 18.632H177.416Z" fill="black"/>
<path d="M213.361 27.416C212.713 28.16 212.017 28.688 211.273 29C210.529 29.336 209.629 29.504 208.573 29.504C207.181 29.504 206.077 29.216 205.261 28.64C204.469 28.04 203.953 27.032 203.713 25.616L203.065 22.016C202.753 20.264 202.369 18.98 201.913 18.164C201.481 17.324 200.749 16.904 199.717 16.904H197.377V25.184C197.377 26.096 197.437 26.756 197.557 27.164C197.701 27.572 197.953 27.848 198.313 27.992C198.673 28.136 199.261 28.232 200.077 28.28V29C198.781 28.928 196.969 28.892 194.641 28.892C192.073 28.892 190.177 28.928 188.953 29V28.28C189.745 28.232 190.321 28.136 190.681 27.992C191.065 27.848 191.317 27.572 191.437 27.164C191.581 26.756 191.653 26.096 191.653 25.184V7.32801C191.653 6.41601 191.581 5.75601 191.437 5.34801C191.317 4.94001 191.065 4.66401 190.681 4.52001C190.321 4.37601 189.745 4.28001 188.953 4.23201V3.51201C190.177 3.58401 192.001 3.62001 194.425 3.62001L198.421 3.58401C198.901 3.56001 199.453 3.54801 200.077 3.54801C203.389 3.54801 205.873 4.08801 207.529 5.16801C209.209 6.24801 210.049 7.79601 210.049 9.81201C210.049 11.516 209.425 13.016 208.177 14.312C206.929 15.608 204.865 16.424 201.985 16.76C204.145 16.952 205.753 17.42 206.809 18.164C207.865 18.908 208.549 20.024 208.861 21.512L209.689 25.22C209.881 26.18 210.097 26.852 210.337 27.236C210.601 27.62 210.961 27.812 211.417 27.812C211.705 27.788 211.945 27.716 212.137 27.596C212.353 27.476 212.593 27.272 212.857 26.984L213.361 27.416ZM199.609 4.23201C198.961 4.23201 198.481 4.31601 198.169 4.48401C197.881 4.65201 197.677 4.95201 197.557 5.38401C197.437 5.81601 197.377 6.46401 197.377 7.32801V16.184H198.925C200.893 16.184 202.237 15.668 202.957 14.636C203.701 13.58 204.073 12.104 204.073 10.208C204.073 8.24001 203.725 6.75201 203.029 5.74401C202.333 4.73601 201.193 4.23201 199.609 4.23201Z" fill="black"/>
<path d="M235.661 3.51201C235.493 5.79201 235.409 7.83201 235.409 9.63201C235.409 10.76 235.445 11.672 235.517 12.368H234.689C234.113 9.41601 233.321 7.34001 232.313 6.14001C231.329 4.94001 229.973 4.34001 228.245 4.34001H227.417V24.896C227.417 25.904 227.513 26.636 227.705 27.092C227.921 27.548 228.281 27.86 228.785 28.028C229.313 28.172 230.141 28.256 231.269 28.28V29C228.245 28.928 225.965 28.892 224.429 28.892C222.917 28.892 220.721 28.928 217.841 29V28.28C218.969 28.256 219.785 28.172 220.289 28.028C220.817 27.86 221.177 27.548 221.369 27.092C221.585 26.636 221.693 25.904 221.693 24.896V4.34001H220.901C219.749 4.34001 218.765 4.59201 217.949 5.09601C217.157 5.60001 216.473 6.44001 215.897 7.61601C215.321 8.76801 214.829 10.352 214.421 12.368H213.593C213.665 11.672 213.701 10.76 213.701 9.63201C213.701 7.83201 213.617 5.79201 213.449 3.51201C215.633 3.58401 219.341 3.62001 224.573 3.62001C229.805 3.62001 233.501 3.58401 235.661 3.51201Z" fill="black"/>
<path d="M246.244 18.704V24.968C246.244 25.928 246.34 26.636 246.532 27.092C246.748 27.524 247.108 27.812 247.612 27.956C248.14 28.1 248.968 28.184 250.096 28.208V29C247.144 28.928 244.948 28.892 243.508 28.892C242.308 28.892 240.796 28.916 238.972 28.964L237.82 29V28.28C238.612 28.232 239.188 28.136 239.548 27.992C239.932 27.848 240.184 27.572 240.304 27.164C240.448 26.756 240.52 26.096 240.52 25.184V7.32801C240.52 6.41601 240.448 5.75601 240.304 5.34801C240.184 4.94001 239.932 4.66401 239.548 4.52001C239.188 4.37601 238.612 4.28001 237.82 4.23201V3.51201C239.044 3.58401 240.868 3.62001 243.292 3.62001L247.288 3.58401C247.768 3.56001 248.32 3.54801 248.944 3.54801C252.184 3.54801 254.656 4.19601 256.36 5.49201C258.064 6.76401 258.916 8.48001 258.916 10.64C258.916 11.96 258.58 13.232 257.908 14.456C257.236 15.656 256.096 16.664 254.488 17.48C252.904 18.296 250.792 18.704 248.152 18.704H246.244ZM248.476 4.23201C247.828 4.23201 247.348 4.31601 247.036 4.48401C246.748 4.65201 246.544 4.95201 246.424 5.38401C246.304 5.81601 246.244 6.46401 246.244 7.32801V17.984H247.792C249.736 17.984 251.08 17.36 251.824 16.112C252.568 14.864 252.94 13.172 252.94 11.036C252.94 8.70801 252.592 6.99201 251.896 5.88801C251.224 4.78401 250.084 4.23201 248.476 4.23201Z" fill="black"/>
<path d="M273.95 3.00801C276.494 3.00801 278.714 3.52401 280.61 4.55601C282.53 5.58801 284.018 7.08801 285.074 9.05601C286.13 11 286.658 13.328 286.658 16.04C286.658 18.68 286.118 21.02 285.038 23.06C283.958 25.1 282.446 26.684 280.502 27.812C278.582 28.94 276.386 29.504 273.914 29.504C271.37 29.504 269.138 28.988 267.218 27.956C265.322 26.924 263.846 25.436 262.79 23.492C261.734 21.524 261.206 19.184 261.206 16.472C261.206 13.832 261.746 11.492 262.826 9.45201C263.906 7.41201 265.406 5.82801 267.326 4.70001C269.27 3.57201 271.478 3.00801 273.95 3.00801ZM273.806 3.65601C272.486 3.65601 271.322 4.19601 270.314 5.27601C269.306 6.33201 268.526 7.82001 267.974 9.74001C267.446 11.66 267.182 13.856 267.182 16.328C267.182 18.824 267.482 21.02 268.082 22.916C268.706 24.812 269.534 26.276 270.566 27.308C271.622 28.34 272.786 28.856 274.058 28.856C275.378 28.856 276.542 28.328 277.55 27.272C278.558 26.192 279.326 24.692 279.854 22.772C280.406 20.852 280.682 18.656 280.682 16.184C280.682 13.688 280.37 11.492 279.746 9.59601C279.146 7.70001 278.318 6.23601 277.262 5.20401C276.23 4.17201 275.078 3.65601 273.806 3.65601Z" fill="black"/>
<path d="M297.572 18.704V24.968C297.572 25.928 297.668 26.636 297.86 27.092C298.076 27.524 298.436 27.812 298.94 27.956C299.468 28.1 300.296 28.184 301.424 28.208V29C298.472 28.928 296.276 28.892 294.836 28.892C293.636 28.892 292.124 28.916 290.3 28.964L289.148 29V28.28C289.94 28.232 290.516 28.136 290.876 27.992C291.26 27.848 291.512 27.572 291.632 27.164C291.776 26.756 291.848 26.096 291.848 25.184V7.32801C291.848 6.41601 291.776 5.75601 291.632 5.34801C291.512 4.94001 291.26 4.66401 290.876 4.52001C290.516 4.37601 289.94 4.28001 289.148 4.23201V3.51201C290.372 3.58401 292.196 3.62001 294.62 3.62001L298.616 3.58401C299.096 3.56001 299.648 3.54801 300.272 3.54801C303.512 3.54801 305.984 4.19601 307.688 5.49201C309.392 6.76401 310.244 8.48001 310.244 10.64C310.244 11.96 309.908 13.232 309.236 14.456C308.564 15.656 307.424 16.664 305.816 17.48C304.232 18.296 302.12 18.704 299.48 18.704H297.572ZM299.804 4.23201C299.156 4.23201 298.676 4.31601 298.364 4.48401C298.076 4.65201 297.872 4.95201 297.752 5.38401C297.632 5.81601 297.572 6.46401 297.572 7.32801V17.984H299.12C301.064 17.984 302.408 17.36 303.152 16.112C303.896 14.864 304.268 13.172 304.268 11.036C304.268 8.70801 303.92 6.99201 303.224 5.88801C302.552 4.78401 301.412 4.23201 299.804 4.23201Z" fill="black"/>
<path d="M328.052 18.704V24.968C328.052 25.928 328.148 26.636 328.34 27.092C328.556 27.524 328.916 27.812 329.42 27.956C329.948 28.1 330.776 28.184 331.904 28.208V29C328.952 28.928 326.756 28.892 325.316 28.892C324.116 28.892 322.604 28.916 320.78 28.964L319.628 29V28.28C320.42 28.232 320.996 28.136 321.356 27.992C321.74 27.848 321.992 27.572 322.112 27.164C322.256 26.756 322.328 26.096 322.328 25.184V7.32801C322.328 6.41601 322.256 5.75601 322.112 5.34801C321.992 4.94001 321.74 4.66401 321.356 4.52001C320.996 4.37601 320.42 4.28001 319.628 4.23201V3.51201C320.852 3.58401 322.676 3.62001 325.1 3.62001L329.096 3.58401C329.576 3.56001 330.128 3.54801 330.752 3.54801C333.992 3.54801 336.464 4.19601 338.168 5.49201C339.872 6.76401 340.724 8.48001 340.724 10.64C340.724 11.96 340.388 13.232 339.716 14.456C339.044 15.656 337.904 16.664 336.296 17.48C334.712 18.296 332.6 18.704 329.96 18.704H328.052ZM330.284 4.23201C329.636 4.23201 329.156 4.31601 328.844 4.48401C328.556 4.65201 328.352 4.95201 328.232 5.38401C328.112 5.81601 328.052 6.46401 328.052 7.32801V17.984H329.6C331.544 17.984 332.888 17.36 333.632 16.112C334.376 14.864 334.748 13.172 334.748 11.036C334.748 8.70801 334.4 6.99201 333.704 5.88801C333.032 4.78401 331.892 4.23201 330.284 4.23201Z" fill="black"/>
<path d="M349.323 25.652C349.323 26.636 349.491 27.32 349.827 27.704C350.163 28.064 350.763 28.244 351.627 28.244V29C349.131 28.904 347.523 28.856 346.803 28.856C345.987 28.856 344.331 28.904 341.835 29V28.244C342.675 28.244 343.263 28.064 343.599 27.704C343.959 27.32 344.139 26.636 344.139 25.652V5.13201C344.139 4.02801 343.959 3.22401 343.599 2.72001C343.263 2.21601 342.675 1.96401 341.835 1.96401V1.20801C342.603 1.28001 343.347 1.31601 344.067 1.31601C346.155 1.31601 347.907 1.14801 349.323 0.812012V25.652Z" fill="black"/>
<path d="M357.911 29.252C356.375 29.252 355.223 28.856 354.455 28.064C353.711 27.272 353.339 26.228 353.339 24.932C353.339 23.852 353.615 22.964 354.167 22.268C354.743 21.548 355.427 20.996 356.219 20.612C357.035 20.228 358.067 19.82 359.315 19.388C360.635 18.932 361.595 18.524 362.195 18.164C362.819 17.78 363.131 17.264 363.131 16.616V13.808C363.131 12.8 362.891 12.02 362.411 11.468C361.955 10.892 361.235 10.604 360.251 10.604C359.099 10.604 358.223 10.892 357.623 11.468C358.295 11.708 358.811 12.068 359.171 12.548C359.555 13.028 359.747 13.592 359.747 14.24C359.747 15.056 359.471 15.704 358.919 16.184C358.367 16.664 357.695 16.904 356.903 16.904C356.063 16.904 355.415 16.64 354.959 16.112C354.503 15.584 354.275 14.924 354.275 14.132C354.275 13.46 354.431 12.896 354.743 12.44C355.079 11.96 355.583 11.516 356.255 11.108C356.903 10.724 357.695 10.424 358.631 10.208C359.591 9.99201 360.635 9.88401 361.763 9.88401C362.939 9.88401 363.959 10.004 364.823 10.244C365.687 10.484 366.407 10.892 366.983 11.468C367.511 11.996 367.859 12.644 368.027 13.412C368.219 14.18 368.315 15.224 368.315 16.544V26.336C368.315 26.912 368.363 27.32 368.459 27.56C368.579 27.8 368.795 27.92 369.107 27.92C369.467 27.92 369.899 27.716 370.403 27.308L370.763 27.92C369.683 28.808 368.363 29.252 366.803 29.252C365.483 29.252 364.559 28.988 364.031 28.46C363.503 27.932 363.227 27.224 363.203 26.336C362.003 28.28 360.239 29.252 357.911 29.252ZM360.683 26.948C361.619 26.948 362.435 26.456 363.131 25.472V18.092C362.843 18.572 362.231 19.1 361.295 19.676C360.359 20.276 359.651 20.876 359.171 21.476C358.691 22.076 358.451 22.94 358.451 24.068C358.451 25.052 358.655 25.784 359.063 26.264C359.471 26.72 360.011 26.948 360.683 26.948Z" fill="black"/>
<path d="M386.307 10.496C387.507 10.496 388.431 10.46 389.079 10.388V11.108C388.575 11.252 388.119 11.564 387.711 12.044C387.327 12.5 386.955 13.22 386.595 14.204L380.151 32.312C379.671 33.56 379.143 34.412 378.567 34.868C377.871 35.468 376.827 35.768 375.435 35.768C374.427 35.768 373.515 35.516 372.699 35.012C371.907 34.532 371.511 33.824 371.511 32.888C371.511 32.144 371.775 31.544 372.303 31.088C372.831 30.656 373.527 30.44 374.391 30.44C375.207 30.44 375.855 30.632 376.335 31.016C376.839 31.424 377.091 31.988 377.091 32.708C377.091 33.212 376.935 33.668 376.623 34.076C376.311 34.508 375.867 34.832 375.291 35.048C375.459 35.072 375.735 35.084 376.119 35.084C377.607 35.084 378.699 34.136 379.395 32.24L379.971 30.512L372.339 13.16C371.955 12.344 371.583 11.804 371.223 11.54C370.863 11.276 370.491 11.144 370.107 11.144V10.388C371.691 10.532 373.335 10.604 375.039 10.604C376.455 10.604 378.123 10.532 380.043 10.388V11.144C379.275 11.144 378.699 11.204 378.315 11.324C377.955 11.42 377.775 11.696 377.775 12.152C377.775 12.416 377.859 12.752 378.027 13.16L382.419 23.78L384.903 16.868C385.287 15.74 385.479 14.78 385.479 13.988C385.479 12.236 384.591 11.276 382.815 11.108V10.388C383.943 10.46 385.107 10.496 386.307 10.496Z" fill="black"/>
<path d="M406.75 13.844C406.27 13.844 405.862 13.688 405.526 13.376C405.19 13.04 405.022 12.572 405.022 11.972C405.022 11.396 405.166 10.808 405.454 10.208C404.878 10.448 404.398 10.724 404.014 11.036C403.654 11.324 403.342 11.696 403.078 12.152C403.822 13.04 404.194 14.192 404.194 15.608C404.194 17.504 403.534 18.932 402.214 19.892C400.918 20.852 399.19 21.332 397.03 21.332H396.382C395.398 21.908 394.906 22.544 394.906 23.24C394.906 24.008 395.386 24.392 396.346 24.392H400.27C402.382 24.392 404.062 24.788 405.31 25.58C406.582 26.348 407.218 27.536 407.218 29.144C407.218 30.368 406.822 31.472 406.03 32.456C405.262 33.464 404.086 34.268 402.502 34.868C400.918 35.468 398.974 35.768 396.67 35.768C394.342 35.768 392.47 35.468 391.054 34.868C389.662 34.292 388.966 33.452 388.966 32.348C388.966 31.604 389.302 30.932 389.974 30.332C390.646 29.756 391.642 29.3 392.962 28.964L393.286 29.54C392.422 30.26 391.99 31.088 391.99 32.024C391.99 33.032 392.446 33.8 393.358 34.328C394.27 34.88 395.53 35.156 397.138 35.156C398.818 35.156 400.174 34.82 401.206 34.148C402.262 33.476 402.79 32.528 402.79 31.304C402.79 30.512 402.49 29.888 401.89 29.432C401.314 28.976 400.294 28.748 398.83 28.748H396.598C395.062 28.748 393.862 28.496 392.998 27.992C392.134 27.464 391.702 26.672 391.702 25.616C391.702 24.728 392.014 23.936 392.638 23.24C393.262 22.544 394.21 21.872 395.482 21.224C393.754 21.008 392.386 20.432 391.378 19.496C390.37 18.56 389.866 17.264 389.866 15.608C389.866 13.712 390.514 12.284 391.81 11.324C393.13 10.364 394.87 9.88401 397.03 9.88401C399.43 9.88401 401.266 10.448 402.538 11.576C402.994 10.928 403.558 10.412 404.23 10.028C404.902 9.64401 405.586 9.45201 406.282 9.45201C407.002 9.45201 407.566 9.66801 407.974 10.1C408.406 10.508 408.622 11.048 408.622 11.72C408.622 12.392 408.43 12.92 408.046 13.304C407.686 13.664 407.254 13.844 406.75 13.844ZM397.03 20.684C397.702 20.684 398.206 20.3 398.542 19.532C398.902 18.764 399.082 17.456 399.082 15.608C399.082 13.76 398.902 12.452 398.542 11.684C398.206 10.916 397.702 10.532 397.03 10.532C396.358 10.532 395.842 10.916 395.482 11.684C395.146 12.452 394.978 13.76 394.978 15.608C394.978 17.456 395.146 18.764 395.482 19.532C395.842 20.3 396.358 20.684 397.03 20.684Z" fill="black"/>
<path d="M421.969 9.88401C423.049 9.88401 423.865 10.208 424.417 10.856C424.969 11.504 425.245 12.284 425.245 13.196C425.245 14.084 424.981 14.816 424.453 15.392C423.949 15.944 423.277 16.22 422.437 16.22C421.621 16.22 420.973 16.016 420.493 15.608C420.013 15.176 419.773 14.612 419.773 13.916C419.773 12.764 420.301 11.828 421.357 11.108C421.261 11.084 421.117 11.072 420.925 11.072C420.685 11.072 420.493 11.096 420.349 11.144C419.437 11.288 418.657 11.84 418.009 12.8C417.385 13.76 417.073 14.744 417.073 15.752V25.292C417.073 26.396 417.337 27.164 417.865 27.596C418.417 28.028 419.281 28.244 420.457 28.244V29C420.121 29 419.845 28.988 419.629 28.964C417.181 28.892 415.549 28.856 414.733 28.856C414.085 28.856 412.609 28.892 410.305 28.964C410.113 28.988 409.873 29 409.585 29V28.244C410.449 28.244 411.049 28.064 411.385 27.704C411.721 27.32 411.889 26.636 411.889 25.652V14.312C411.889 13.208 411.721 12.404 411.385 11.9C411.049 11.396 410.449 11.144 409.585 11.144V10.388C410.353 10.46 411.097 10.496 411.817 10.496C413.953 10.496 415.705 10.328 417.073 9.99201V13.34C417.529 12.308 418.189 11.48 419.053 10.856C419.917 10.208 420.889 9.88401 421.969 9.88401Z" fill="black"/>
<path d="M435.185 9.88401C437.945 9.88401 440.105 10.676 441.665 12.26C443.225 13.82 444.005 16.304 444.005 19.712C444.005 23.12 443.225 25.604 441.665 27.164C440.105 28.724 437.945 29.504 435.185 29.504C432.449 29.504 430.289 28.724 428.705 27.164C427.145 25.604 426.365 23.12 426.365 19.712C426.365 16.304 427.145 13.82 428.705 12.26C430.289 10.676 432.449 9.88401 435.185 9.88401ZM435.185 10.604C434.153 10.604 433.325 11.36 432.701 12.872C432.101 14.36 431.801 16.64 431.801 19.712C431.801 22.784 432.101 25.064 432.701 26.552C433.325 28.04 434.153 28.784 435.185 28.784C436.241 28.784 437.069 28.052 437.669 26.588C438.269 25.1 438.569 22.808 438.569 19.712C438.569 16.616 438.257 14.324 437.633 12.836C437.033 11.348 436.217 10.604 435.185 10.604Z" fill="black"/>
<path d="M464.181 25.076C464.181 26.18 464.349 26.984 464.685 27.488C465.045 27.992 465.645 28.244 466.485 28.244V29C465.741 28.928 464.997 28.892 464.253 28.892C462.165 28.892 460.413 29.06 458.997 29.396V26.156C457.893 28.388 455.961 29.504 453.201 29.504C451.401 29.504 450.093 29.036 449.277 28.1C448.893 27.644 448.605 27.056 448.413 26.336C448.245 25.592 448.161 24.62 448.161 23.42V14.312C448.161 13.208 447.981 12.404 447.621 11.9C447.285 11.396 446.697 11.144 445.857 11.144V10.388C446.601 10.46 447.345 10.496 448.089 10.496C450.177 10.496 451.929 10.328 453.345 9.99201V24.896C453.345 25.904 453.489 26.66 453.777 27.164C454.089 27.668 454.665 27.92 455.505 27.92C456.465 27.92 457.281 27.524 457.953 26.732C458.649 25.916 458.997 24.92 458.997 23.744V14.312C458.997 13.208 458.817 12.404 458.457 11.9C458.121 11.396 457.533 11.144 456.693 11.144V10.388C457.461 10.46 458.205 10.496 458.925 10.496C461.013 10.496 462.765 10.328 464.181 9.99201V25.076Z" fill="black"/>
<path d="M481.477 9.88401C483.301 9.88401 484.621 10.352 485.437 11.288C485.845 11.744 486.133 12.332 486.301 13.052C486.469 13.772 486.553 14.744 486.553 15.968V25.652C486.553 26.636 486.721 27.32 487.057 27.704C487.417 28.064 488.017 28.244 488.857 28.244V29C486.457 28.904 484.873 28.856 484.105 28.856C483.385 28.856 481.825 28.904 479.425 29V28.244C480.145 28.244 480.649 28.064 480.937 27.704C481.225 27.32 481.369 26.636 481.369 25.652V14.456C481.369 13.472 481.201 12.728 480.865 12.224C480.553 11.72 479.977 11.468 479.137 11.468C478.153 11.468 477.313 11.876 476.617 12.692C475.921 13.484 475.573 14.468 475.573 15.644V25.652C475.573 26.636 475.717 27.32 476.005 27.704C476.293 28.064 476.797 28.244 477.517 28.244V29C475.309 28.904 473.821 28.856 473.053 28.856C472.333 28.856 470.677 28.904 468.085 29V28.244C468.949 28.244 469.549 28.064 469.885 27.704C470.221 27.32 470.389 26.636 470.389 25.652V14.312C470.389 13.208 470.221 12.404 469.885 11.9C469.549 11.396 468.949 11.144 468.085 11.144V10.388C468.853 10.46 469.597 10.496 470.317 10.496C472.453 10.496 474.205 10.328 475.573 9.99201V13.232C476.653 11 478.621 9.88401 481.477 9.88401Z" fill="black"/>
<path d="M507.91 25.04C507.91 26.144 508.078 26.948 508.414 27.452C508.75 27.956 509.35 28.208 510.214 28.208V28.964C509.47 28.892 508.726 28.856 507.982 28.856C505.846 28.856 504.094 29.024 502.726 29.36V26.264C501.91 28.424 500.35 29.504 498.046 29.504C495.79 29.504 493.99 28.688 492.646 27.056C491.326 25.4 490.678 22.916 490.702 19.604C490.702 17.492 491.038 15.716 491.71 14.276C492.406 12.812 493.354 11.72 494.554 11C495.778 10.256 497.17 9.88401 498.73 9.88401C500.482 9.88401 501.814 10.34 502.726 11.252V5.13201C502.726 4.02801 502.546 3.22401 502.186 2.72001C501.85 2.21601 501.262 1.96401 500.422 1.96401V1.20801C501.19 1.28001 501.934 1.31601 502.654 1.31601C504.742 1.31601 506.494 1.14801 507.91 0.812012V25.04ZM499.522 27.956C500.314 27.956 501.01 27.668 501.61 27.092C502.234 26.516 502.606 25.736 502.726 24.752V12.152C502.126 11.336 501.25 10.928 500.098 10.928C498.826 10.928 497.842 11.66 497.146 13.124C496.45 14.588 496.114 16.772 496.138 19.676C496.114 22.604 496.39 24.716 496.966 26.012C497.566 27.308 498.418 27.956 499.522 27.956Z" fill="black"/>
</svg>
