<svg width="139" height="29" viewBox="0 0 139 29" fill="none" xmlns="http://www.w3.org/2000/svg">
<path d="M24.5656 26.416C23.9176 27.16 23.2216 27.688 22.4776 28C21.7336 28.336 20.8336 28.504 19.7776 28.504C18.3856 28.504 17.2816 28.216 16.4656 27.64C15.6736 27.04 15.1576 26.032 14.9176 24.616L14.2696 21.016C13.9576 19.264 13.5736 17.98 13.1176 17.164C12.6856 16.324 11.9536 15.904 10.9216 15.904H8.58159V24.184C8.58159 25.096 8.6416 25.756 8.7616 26.164C8.9056 26.572 9.15759 26.848 9.51759 26.992C9.87759 27.136 10.4656 27.232 11.2816 27.28V28C9.9856 27.928 8.1736 27.892 5.8456 27.892C3.2776 27.892 1.38159 27.928 0.157593 28V27.28C0.949593 27.232 1.52559 27.136 1.88559 26.992C2.26959 26.848 2.5216 26.572 2.6416 26.164C2.7856 25.756 2.85759 25.096 2.85759 24.184V6.32797C2.85759 5.41597 2.7856 4.75598 2.6416 4.34798C2.5216 3.93998 2.26959 3.66398 1.88559 3.51998C1.52559 3.37598 0.949593 3.27997 0.157593 3.23198V2.51198C1.38159 2.58398 3.20559 2.61998 5.62959 2.61998L9.6256 2.58398C10.1056 2.55998 10.6576 2.54798 11.2816 2.54798C14.5936 2.54798 17.0776 3.08798 18.7336 4.16797C20.4136 5.24797 21.2536 6.79598 21.2536 8.81198C21.2536 10.516 20.6296 12.016 19.3816 13.312C18.1336 14.608 16.0696 15.424 13.1896 15.76C15.3496 15.952 16.9576 16.42 18.0136 17.164C19.0696 17.908 19.7536 19.024 20.0656 20.512L20.8936 24.22C21.0856 25.18 21.3016 25.852 21.5416 26.236C21.8056 26.62 22.1656 26.812 22.6216 26.812C22.9096 26.788 23.1496 26.716 23.3416 26.596C23.5576 26.476 23.7976 26.272 24.0616 25.984L24.5656 26.416ZM10.8136 3.23198C10.1656 3.23198 9.6856 3.31598 9.3736 3.48397C9.0856 3.65198 8.8816 3.95198 8.7616 4.38398C8.6416 4.81598 8.58159 5.46398 8.58159 6.32797V15.184H10.1296C12.0976 15.184 13.4416 14.668 14.1616 13.636C14.9056 12.58 15.2776 11.104 15.2776 9.20798C15.2776 7.23998 14.9296 5.75198 14.2336 4.74398C13.5376 3.73598 12.3976 3.23198 10.8136 3.23198Z" fill="black"/>
<path d="M35.3074 25.552C37.2754 25.552 38.8594 24.592 40.0594 22.672L40.7074 22.888C40.2274 24.448 39.3634 25.78 38.1154 26.884C36.8914 27.964 35.3554 28.504 33.5074 28.504C30.9634 28.504 28.9354 27.7 27.4234 26.092C25.9354 24.46 25.1914 22.06 25.1914 18.892C25.1914 15.652 25.9954 13.18 27.6034 11.476C29.2114 9.74798 31.3474 8.88398 34.0114 8.88398C38.5234 8.88398 40.7794 11.548 40.7794 16.876H30.6634C30.6394 17.236 30.6274 17.8 30.6274 18.568C30.6274 20.152 30.8434 21.472 31.2754 22.528C31.7314 23.584 32.3074 24.352 33.0034 24.832C33.7234 25.312 34.4914 25.552 35.3074 25.552ZM33.7954 9.63997C32.9314 9.63997 32.2114 10.18 31.6354 11.26C31.0834 12.316 30.7354 13.96 30.5914 16.192H36.2434C36.2914 14.296 36.0994 12.736 35.6674 11.512C35.2594 10.264 34.6354 9.63997 33.7954 9.63997Z" fill="black"/>
<path d="M71.5971 24.652C71.5971 25.636 71.7651 26.32 72.1011 26.704C72.4611 27.064 73.0611 27.244 73.9011 27.244V28C71.5011 27.904 69.9171 27.856 69.1491 27.856C68.4771 27.856 66.9891 27.904 64.6851 28V27.244C65.3331 27.244 65.7771 27.064 66.0171 26.704C66.2811 26.344 66.4131 25.66 66.4131 24.652V13.456C66.4131 12.448 66.2571 11.704 65.9451 11.224C65.6571 10.72 65.0931 10.468 64.2531 10.468C63.3651 10.468 62.5851 10.84 61.9131 11.584C61.2651 12.328 60.8811 13.24 60.7611 14.32V14.968V24.652C60.7611 25.636 60.9051 26.32 61.1931 26.704C61.5051 27.064 62.0571 27.244 62.8491 27.244V28C60.5451 27.904 59.033 27.856 58.313 27.856C57.641 27.856 56.1531 27.904 53.8491 28V27.244C54.4971 27.244 54.9411 27.064 55.1811 26.704C55.4451 26.32 55.5771 25.636 55.5771 24.652V13.456C55.5771 12.448 55.4451 11.704 55.1811 11.224C54.9171 10.72 54.4011 10.468 53.6331 10.468C52.6731 10.468 51.8451 10.876 51.1491 11.692C50.4771 12.484 50.1411 13.468 50.1411 14.644V24.652C50.1411 25.636 50.2611 26.32 50.5011 26.704C50.7651 27.064 51.2211 27.244 51.8691 27.244V28C49.7571 27.904 48.3411 27.856 47.6211 27.856C46.9011 27.856 45.2451 27.904 42.6531 28V27.244C43.5171 27.244 44.1171 27.064 44.4531 26.704C44.7891 26.32 44.9571 25.636 44.9571 24.652V13.312C44.9571 12.208 44.7891 11.404 44.4531 10.9C44.1171 10.396 43.5171 10.144 42.6531 10.144V9.38798C43.4211 9.45998 44.1651 9.49598 44.8851 9.49598C47.0211 9.49598 48.7731 9.32798 50.1411 8.99198V12.232C51.1971 9.99998 53.0571 8.88398 55.7211 8.88398C57.5451 8.88398 58.8651 9.35198 59.6811 10.288C60.1371 10.768 60.4371 11.488 60.5811 12.448C61.2051 11.152 62.0211 10.24 63.0291 9.71198C64.0371 9.15998 65.2131 8.88398 66.5571 8.88398C68.3811 8.88398 69.7011 9.35198 70.5171 10.288C70.9011 10.72 71.1771 11.308 71.3451 12.052C71.5131 12.796 71.5971 13.768 71.5971 14.968V24.652Z" fill="black"/>
<path d="M79.9229 0.0999756C80.9309 0.0999756 81.7229 0.351976 82.2989 0.855977C82.8989 1.33598 83.1989 2.00798 83.1989 2.87198C83.1989 3.73598 82.8989 4.41998 82.2989 4.92398C81.7229 5.40398 80.9309 5.64397 79.9229 5.64397C78.9149 5.64397 78.1109 5.40398 77.5109 4.92398C76.9349 4.41998 76.6469 3.73598 76.6469 2.87198C76.6469 2.00798 76.9349 1.33598 77.5109 0.855977C78.1109 0.351976 78.9149 0.0999756 79.9229 0.0999756ZM82.7309 24.652C82.7309 25.636 82.8989 26.32 83.2349 26.704C83.5949 27.064 84.1949 27.244 85.0349 27.244V28C82.6349 27.904 81.0389 27.856 80.2469 27.856C79.5029 27.856 77.8349 27.904 75.2429 28V27.244C76.1069 27.244 76.7069 27.064 77.0429 26.704C77.3789 26.32 77.5469 25.636 77.5469 24.652V13.312C77.5469 12.208 77.3789 11.404 77.0429 10.9C76.7069 10.396 76.1069 10.144 75.2429 10.144V9.38798C76.0109 9.45998 76.7549 9.49598 77.4749 9.49598C79.6109 9.49598 81.3629 9.32798 82.7309 8.99198V24.652Z" fill="black"/>
<path d="M103.014 25.444C103.398 25.996 103.734 26.416 104.022 26.704C104.31 26.992 104.646 27.172 105.03 27.244V28C103.11 27.904 101.826 27.856 101.178 27.856C100.458 27.856 98.8984 27.904 96.4984 28V27.244C96.8584 27.244 97.1464 27.184 97.3624 27.064C97.6024 26.944 97.7224 26.764 97.7224 26.524C97.7224 26.38 97.6624 26.212 97.5424 26.02L93.7984 20.44L92.5384 22.024C91.7464 23.056 91.3504 24.016 91.3504 24.904C91.3504 25.576 91.5784 26.128 92.0344 26.56C92.5144 26.968 93.1504 27.208 93.9424 27.28V28C92.5504 27.928 90.8224 27.892 88.7584 27.892C87.7744 27.892 86.9344 27.928 86.2384 28V27.28C86.7904 27.088 87.3184 26.776 87.8224 26.344C88.3264 25.912 88.8904 25.3 89.5144 24.508L93.3664 19.792L88.0744 11.944C87.6184 11.296 87.2584 10.852 86.9944 10.612C86.7304 10.348 86.4184 10.192 86.0584 10.144V9.38798C88.1704 9.48398 89.5984 9.53198 90.3424 9.53198C90.9664 9.53198 92.3824 9.48398 94.5904 9.38798V10.144C94.2304 10.144 93.9304 10.204 93.6904 10.324C93.4744 10.444 93.3664 10.624 93.3664 10.864C93.3664 11.056 93.4264 11.224 93.5464 11.368L96.9304 16.408L98.2984 14.608C99.1384 13.504 99.5584 12.58 99.5584 11.836C99.5584 11.332 99.3664 10.936 98.9824 10.648C98.6224 10.336 98.0824 10.156 97.3624 10.108V9.38798C98.7544 9.45998 100.11 9.49598 101.43 9.49598C102.438 9.49598 103.29 9.45998 103.986 9.38798V10.108C102.978 10.444 101.874 11.368 100.674 12.88L97.3624 17.02L103.014 25.444Z" fill="black"/>
<path d="M115.78 25.552C117.748 25.552 119.332 24.592 120.532 22.672L121.18 22.888C120.7 24.448 119.836 25.78 118.588 26.884C117.364 27.964 115.828 28.504 113.98 28.504C111.436 28.504 109.408 27.7 107.896 26.092C106.408 24.46 105.664 22.06 105.664 18.892C105.664 15.652 106.468 13.18 108.076 11.476C109.684 9.74798 111.82 8.88398 114.484 8.88398C118.996 8.88398 121.252 11.548 121.252 16.876H111.136C111.112 17.236 111.1 17.8 111.1 18.568C111.1 20.152 111.316 21.472 111.748 22.528C112.204 23.584 112.78 24.352 113.476 24.832C114.196 25.312 114.964 25.552 115.78 25.552ZM114.268 9.63997C113.404 9.63997 112.684 10.18 112.108 11.26C111.556 12.316 111.208 13.96 111.064 16.192H116.716C116.764 14.296 116.572 12.736 116.14 11.512C115.732 10.264 115.108 9.63997 114.268 9.63997Z" fill="black"/>
<path d="M135.51 8.88398C136.59 8.88398 137.406 9.20798 137.958 9.85598C138.51 10.504 138.786 11.284 138.786 12.196C138.786 13.084 138.522 13.816 137.994 14.392C137.49 14.944 136.818 15.22 135.978 15.22C135.162 15.22 134.514 15.016 134.034 14.608C133.554 14.176 133.314 13.612 133.314 12.916C133.314 11.764 133.842 10.828 134.898 10.108C134.802 10.084 134.658 10.072 134.466 10.072C134.226 10.072 134.034 10.096 133.89 10.144C132.978 10.288 132.198 10.84 131.55 11.8C130.926 12.76 130.614 13.744 130.614 14.752V24.292C130.614 25.396 130.878 26.164 131.406 26.596C131.958 27.028 132.822 27.244 133.998 27.244V28C133.662 28 133.386 27.988 133.17 27.964C130.722 27.892 129.09 27.856 128.274 27.856C127.626 27.856 126.15 27.892 123.846 27.964C123.654 27.988 123.414 28 123.126 28V27.244C123.99 27.244 124.59 27.064 124.926 26.704C125.262 26.32 125.43 25.636 125.43 24.652V13.312C125.43 12.208 125.262 11.404 124.926 10.9C124.59 10.396 123.99 10.144 123.126 10.144V9.38798C123.894 9.45998 124.638 9.49598 125.358 9.49598C127.494 9.49598 129.246 9.32798 130.614 8.99198V12.34C131.07 11.308 131.73 10.48 132.594 9.85598C133.458 9.20798 134.43 8.88398 135.51 8.88398Z" fill="black"/>
</svg>
