<svg width="306" height="30" viewBox="0 0 306 30" fill="none" xmlns="http://www.w3.org/2000/svg">
<path d="M23.103 26.084C23.463 26.636 23.835 27.08 24.219 27.416C24.603 27.752 25.095 28.04 25.695 28.28V29C24.015 28.928 22.143 28.892 20.079 28.892C18.495 28.892 16.971 28.928 15.507 29V28.28C16.179 28.232 16.659 28.16 16.947 28.064C17.259 27.968 17.415 27.8 17.415 27.56C17.415 27.368 17.283 27.068 17.019 26.66L11.799 18.2C11.319 17.432 10.911 16.916 10.575 16.652C10.263 16.388 9.83098 16.232 9.27898 16.184V25.184C9.27898 26.096 9.33898 26.756 9.45898 27.164C9.60298 27.572 9.85498 27.848 10.215 27.992C10.575 28.136 11.163 28.232 11.979 28.28V29C10.683 28.928 8.87098 28.892 6.54298 28.892C3.97498 28.892 2.07898 28.928 0.85498 29V28.28C1.64698 28.232 2.22298 28.136 2.58298 27.992C2.96698 27.848 3.21898 27.572 3.33898 27.164C3.48298 26.756 3.55499 26.096 3.55499 25.184V7.32801C3.55499 6.41601 3.48298 5.75601 3.33898 5.34801C3.21898 4.94001 2.96698 4.66401 2.58298 4.52001C2.22298 4.37601 1.64698 4.28001 0.85498 4.23201V3.51201C2.07898 3.58401 3.97498 3.62001 6.54298 3.62001C8.87098 3.62001 10.683 3.58401 11.979 3.51201V4.23201C11.163 4.28001 10.575 4.37601 10.215 4.52001C9.85498 4.66401 9.60298 4.94001 9.45898 5.34801C9.33898 5.75601 9.27898 6.41601 9.27898 7.32801V15.428C10.239 15.38 11.115 15.092 11.907 14.564C12.699 14.036 13.599 13.196 14.607 12.044L16.731 9.48801C17.835 8.21601 18.387 7.10001 18.387 6.14001C18.387 5.56401 18.147 5.10801 17.667 4.77201C17.211 4.43601 16.563 4.24401 15.723 4.19601V3.51201C17.475 3.58401 19.251 3.62001 21.051 3.62001C22.443 3.62001 23.571 3.58401 24.435 3.51201V4.19601C22.515 4.65201 20.775 5.80401 19.215 7.65201L14.715 13.016L23.103 26.084Z" fill="black"/>
<path d="M43.7706 25.076C43.7706 26.18 43.9386 26.984 44.2746 27.488C44.6346 27.992 45.2346 28.244 46.0746 28.244V29C45.3306 28.928 44.5866 28.892 43.8426 28.892C41.7546 28.892 40.0026 29.06 38.5866 29.396V26.156C37.4826 28.388 35.5506 29.504 32.7906 29.504C30.9906 29.504 29.6826 29.036 28.8666 28.1C28.4826 27.644 28.1946 27.056 28.0026 26.336C27.8346 25.592 27.7506 24.62 27.7506 23.42V14.312C27.7506 13.208 27.5706 12.404 27.2106 11.9C26.8746 11.396 26.2866 11.144 25.4466 11.144V10.388C26.1906 10.46 26.9346 10.496 27.6786 10.496C29.7666 10.496 31.5186 10.328 32.9346 9.99201V24.896C32.9346 25.904 33.0786 26.66 33.3666 27.164C33.6786 27.668 34.2546 27.92 35.0946 27.92C36.0546 27.92 36.8706 27.524 37.5426 26.732C38.2386 25.916 38.5866 24.92 38.5866 23.744V14.312C38.5866 13.208 38.4066 12.404 38.0466 11.9C37.7106 11.396 37.1226 11.144 36.2826 11.144V10.388C37.0506 10.46 37.7946 10.496 38.5146 10.496C40.6026 10.496 42.3546 10.328 43.7706 9.99201V25.076Z" fill="black"/>
<path d="M65.3867 25.04C65.3867 26.144 65.5547 26.948 65.8907 27.452C66.2267 27.956 66.8267 28.208 67.6907 28.208V28.964C66.9467 28.892 66.2027 28.856 65.4587 28.856C63.3227 28.856 61.5707 29.024 60.2027 29.36V26.264C59.3867 28.424 57.8267 29.504 55.5227 29.504C53.2667 29.504 51.4667 28.688 50.1227 27.056C48.8027 25.4 48.1547 22.916 48.1787 19.604C48.1787 17.492 48.5147 15.716 49.1867 14.276C49.8827 12.812 50.8307 11.72 52.0307 11C53.2547 10.256 54.6467 9.88401 56.2067 9.88401C57.9587 9.88401 59.2907 10.34 60.2027 11.252V5.13201C60.2027 4.02801 60.0227 3.22401 59.6627 2.72001C59.3267 2.21601 58.7387 1.96401 57.8987 1.96401V1.20801C58.6667 1.28001 59.4107 1.31601 60.1307 1.31601C62.2187 1.31601 63.9707 1.14801 65.3867 0.812012V25.04ZM56.9987 27.956C57.7907 27.956 58.4867 27.668 59.0867 27.092C59.7107 26.516 60.0827 25.736 60.2027 24.752V12.152C59.6027 11.336 58.7267 10.928 57.5747 10.928C56.3027 10.928 55.3187 11.66 54.6227 13.124C53.9267 14.588 53.5907 16.772 53.6147 19.676C53.5907 22.604 53.8667 24.716 54.4427 26.012C55.0427 27.308 55.8947 27.956 56.9987 27.956Z" fill="black"/>
<path d="M78.4783 9.88401C81.2383 9.88401 83.3983 10.676 84.9583 12.26C86.5183 13.82 87.2983 16.304 87.2983 19.712C87.2983 23.12 86.5183 25.604 84.9583 27.164C83.3983 28.724 81.2383 29.504 78.4783 29.504C75.7423 29.504 73.5823 28.724 71.9983 27.164C70.4383 25.604 69.6583 23.12 69.6583 19.712C69.6583 16.304 70.4383 13.82 71.9983 12.26C73.5823 10.676 75.7423 9.88401 78.4783 9.88401ZM78.4783 10.604C77.4463 10.604 76.6183 11.36 75.9943 12.872C75.3943 14.36 75.0943 16.64 75.0943 19.712C75.0943 22.784 75.3943 25.064 75.9943 26.552C76.6183 28.04 77.4463 28.784 78.4783 28.784C79.5343 28.784 80.3623 28.052 80.9623 26.588C81.5623 25.1 81.8623 22.808 81.8623 19.712C81.8623 16.616 81.5503 14.324 80.9263 12.836C80.3263 11.348 79.5103 10.604 78.4783 10.604Z" fill="black"/>
<path d="M96.6738 9.88401C97.5858 9.88401 98.4258 10.004 99.1938 10.244C99.9618 10.46 100.55 10.712 100.958 11C101.198 11.168 101.414 11.252 101.606 11.252C101.822 11.252 102.002 11.144 102.146 10.928C102.314 10.688 102.422 10.352 102.47 9.92001H103.226C103.13 11.144 103.082 13.256 103.082 16.256H102.326C102.11 14.672 101.63 13.352 100.886 12.296C100.166 11.216 99.1098 10.676 97.7178 10.676C96.9978 10.676 96.3978 10.88 95.9178 11.288C95.4618 11.696 95.2338 12.26 95.2338 12.98C95.2338 13.796 95.5098 14.504 96.0618 15.104C96.6138 15.68 97.4778 16.388 98.6538 17.228L99.6978 17.984C101.162 19.088 102.242 20.072 102.938 20.936C103.634 21.8 103.982 22.88 103.982 24.176C103.982 25.232 103.67 26.168 103.046 26.984C102.446 27.8 101.63 28.424 100.598 28.856C99.5658 29.288 98.4258 29.504 97.1778 29.504C95.8578 29.504 94.7298 29.252 93.7938 28.748C93.0258 28.364 92.4738 28.112 92.1378 27.992C91.8978 27.92 91.6818 28.004 91.4898 28.244C91.3218 28.46 91.1898 28.796 91.0938 29.252H90.3378C90.4338 27.884 90.4818 25.484 90.4818 22.052H91.2378C91.7178 26.468 93.3378 28.676 96.0978 28.676C96.7938 28.676 97.3818 28.472 97.8618 28.064C98.3658 27.632 98.6178 26.984 98.6178 26.12C98.6178 25.448 98.4618 24.848 98.1498 24.32C97.8618 23.792 97.4898 23.324 97.0338 22.916C96.5778 22.508 95.8938 21.944 94.9818 21.224C93.9018 20.36 93.0738 19.664 92.4978 19.136C91.9458 18.608 91.4658 17.984 91.0578 17.264C90.6738 16.544 90.4818 15.74 90.4818 14.852C90.4818 13.316 91.0818 12.104 92.2818 11.216C93.4818 10.328 94.9458 9.88401 96.6738 9.88401Z" fill="black"/>
<path d="M119.329 29.252C117.793 29.252 116.641 28.856 115.873 28.064C115.129 27.272 114.757 26.228 114.757 24.932C114.757 23.852 115.033 22.964 115.585 22.268C116.161 21.548 116.845 20.996 117.637 20.612C118.453 20.228 119.485 19.82 120.733 19.388C122.053 18.932 123.013 18.524 123.613 18.164C124.237 17.78 124.549 17.264 124.549 16.616V13.808C124.549 12.8 124.309 12.02 123.829 11.468C123.373 10.892 122.653 10.604 121.669 10.604C120.517 10.604 119.641 10.892 119.041 11.468C119.713 11.708 120.229 12.068 120.589 12.548C120.973 13.028 121.165 13.592 121.165 14.24C121.165 15.056 120.889 15.704 120.337 16.184C119.785 16.664 119.113 16.904 118.321 16.904C117.481 16.904 116.833 16.64 116.377 16.112C115.921 15.584 115.693 14.924 115.693 14.132C115.693 13.46 115.849 12.896 116.161 12.44C116.497 11.96 117.001 11.516 117.673 11.108C118.321 10.724 119.113 10.424 120.049 10.208C121.009 9.99201 122.053 9.88401 123.181 9.88401C124.357 9.88401 125.377 10.004 126.241 10.244C127.105 10.484 127.825 10.892 128.401 11.468C128.929 11.996 129.277 12.644 129.445 13.412C129.637 14.18 129.733 15.224 129.733 16.544V26.336C129.733 26.912 129.781 27.32 129.877 27.56C129.997 27.8 130.213 27.92 130.525 27.92C130.885 27.92 131.317 27.716 131.821 27.308L132.181 27.92C131.101 28.808 129.781 29.252 128.221 29.252C126.901 29.252 125.977 28.988 125.449 28.46C124.921 27.932 124.645 27.224 124.621 26.336C123.421 28.28 121.657 29.252 119.329 29.252ZM122.101 26.948C123.037 26.948 123.853 26.456 124.549 25.472V18.092C124.261 18.572 123.649 19.1 122.713 19.676C121.777 20.276 121.069 20.876 120.589 21.476C120.109 22.076 119.869 22.94 119.869 24.068C119.869 25.052 120.073 25.784 120.481 26.264C120.889 26.72 121.429 26.948 122.101 26.948Z" fill="black"/>
<path d="M146.602 9.88401C148.426 9.88401 149.746 10.352 150.562 11.288C150.97 11.744 151.258 12.332 151.426 13.052C151.594 13.772 151.678 14.744 151.678 15.968V25.652C151.678 26.636 151.846 27.32 152.182 27.704C152.542 28.064 153.142 28.244 153.982 28.244V29C151.582 28.904 149.998 28.856 149.23 28.856C148.51 28.856 146.95 28.904 144.55 29V28.244C145.27 28.244 145.774 28.064 146.062 27.704C146.35 27.32 146.494 26.636 146.494 25.652V14.456C146.494 13.472 146.326 12.728 145.99 12.224C145.678 11.72 145.102 11.468 144.262 11.468C143.278 11.468 142.438 11.876 141.742 12.692C141.046 13.484 140.698 14.468 140.698 15.644V25.652C140.698 26.636 140.842 27.32 141.13 27.704C141.418 28.064 141.922 28.244 142.642 28.244V29C140.434 28.904 138.946 28.856 138.178 28.856C137.458 28.856 135.802 28.904 133.21 29V28.244C134.074 28.244 134.674 28.064 135.01 27.704C135.346 27.32 135.514 26.636 135.514 25.652V14.312C135.514 13.208 135.346 12.404 135.01 11.9C134.674 11.396 134.074 11.144 133.21 11.144V10.388C133.978 10.46 134.722 10.496 135.442 10.496C137.578 10.496 139.33 10.328 140.698 9.99201V13.232C141.778 11 143.746 9.88401 146.602 9.88401Z" fill="black"/>
<path d="M173.035 25.04C173.035 26.144 173.203 26.948 173.539 27.452C173.875 27.956 174.475 28.208 175.339 28.208V28.964C174.595 28.892 173.851 28.856 173.107 28.856C170.971 28.856 169.219 29.024 167.851 29.36V26.264C167.035 28.424 165.475 29.504 163.171 29.504C160.915 29.504 159.115 28.688 157.771 27.056C156.451 25.4 155.803 22.916 155.827 19.604C155.827 17.492 156.163 15.716 156.835 14.276C157.531 12.812 158.479 11.72 159.679 11C160.903 10.256 162.295 9.88401 163.855 9.88401C165.607 9.88401 166.939 10.34 167.851 11.252V5.13201C167.851 4.02801 167.671 3.22401 167.311 2.72001C166.975 2.21601 166.387 1.96401 165.547 1.96401V1.20801C166.315 1.28001 167.059 1.31601 167.779 1.31601C169.867 1.31601 171.619 1.14801 173.035 0.812012V25.04ZM164.647 27.956C165.439 27.956 166.135 27.668 166.735 27.092C167.359 26.516 167.731 25.736 167.851 24.752V12.152C167.251 11.336 166.375 10.928 165.223 10.928C163.951 10.928 162.967 11.66 162.271 13.124C161.575 14.588 161.239 16.772 161.263 19.676C161.239 22.604 161.515 24.716 162.091 26.012C162.691 27.308 163.543 27.956 164.647 27.956Z" fill="black"/>
<path d="M198.669 3.00801C200.109 3.00801 201.333 3.21201 202.341 3.62001C203.349 4.02801 204.333 4.60401 205.293 5.34801C205.557 5.56401 205.785 5.67201 205.977 5.67201C206.457 5.67201 206.769 4.95201 206.913 3.51201H207.741C207.645 5.14401 207.597 8.04801 207.597 12.224H206.769C206.553 10.448 206.265 9.09201 205.905 8.15601C205.545 7.22001 204.933 6.40401 204.069 5.70801C203.469 5.13201 202.773 4.70001 201.981 4.41201C201.189 4.10001 200.361 3.94401 199.497 3.94401C197.073 3.94401 195.273 5.13201 194.097 7.50801C192.921 9.86001 192.333 12.8 192.333 16.328C192.333 19.832 192.945 22.76 194.169 25.112C195.393 27.464 197.217 28.64 199.641 28.64C200.457 28.64 201.261 28.496 202.053 28.208C202.869 27.896 203.553 27.452 204.105 26.876C204.993 26.204 205.605 25.364 205.941 24.356C206.301 23.348 206.577 21.872 206.769 19.928H207.597C207.597 24.272 207.645 27.296 207.741 29H206.913C206.841 28.232 206.733 27.692 206.589 27.38C206.469 27.044 206.289 26.876 206.049 26.876C205.857 26.876 205.605 26.972 205.293 27.164C204.213 27.932 203.181 28.52 202.197 28.928C201.213 29.312 200.025 29.504 198.633 29.504C196.089 29.504 193.857 28.988 191.937 27.956C190.041 26.924 188.565 25.436 187.509 23.492C186.453 21.524 185.925 19.184 185.925 16.472C185.925 13.832 186.465 11.492 187.545 9.45201C188.625 7.41201 190.125 5.82801 192.045 4.70001C193.989 3.57201 196.197 3.00801 198.669 3.00801Z" fill="black"/>
<path d="M223.008 9.88401C224.088 9.88401 224.904 10.208 225.456 10.856C226.008 11.504 226.284 12.284 226.284 13.196C226.284 14.084 226.02 14.816 225.492 15.392C224.988 15.944 224.316 16.22 223.476 16.22C222.66 16.22 222.012 16.016 221.532 15.608C221.052 15.176 220.812 14.612 220.812 13.916C220.812 12.764 221.34 11.828 222.396 11.108C222.3 11.084 222.156 11.072 221.964 11.072C221.724 11.072 221.532 11.096 221.388 11.144C220.476 11.288 219.696 11.84 219.048 12.8C218.424 13.76 218.112 14.744 218.112 15.752V25.292C218.112 26.396 218.376 27.164 218.904 27.596C219.456 28.028 220.32 28.244 221.496 28.244V29C221.16 29 220.884 28.988 220.668 28.964C218.22 28.892 216.588 28.856 215.772 28.856C215.124 28.856 213.648 28.892 211.344 28.964C211.152 28.988 210.912 29 210.624 29V28.244C211.488 28.244 212.088 28.064 212.424 27.704C212.76 27.32 212.928 26.636 212.928 25.652V14.312C212.928 13.208 212.76 12.404 212.424 11.9C212.088 11.396 211.488 11.144 210.624 11.144V10.388C211.392 10.46 212.136 10.496 212.856 10.496C214.992 10.496 216.744 10.328 218.112 9.99201V13.34C218.568 12.308 219.228 11.48 220.092 10.856C220.956 10.208 221.928 9.88401 223.008 9.88401Z" fill="black"/>
<path d="M237.52 26.552C239.488 26.552 241.072 25.592 242.272 23.672L242.92 23.888C242.44 25.448 241.576 26.78 240.328 27.884C239.104 28.964 237.568 29.504 235.72 29.504C233.176 29.504 231.148 28.7 229.636 27.092C228.148 25.46 227.404 23.06 227.404 19.892C227.404 16.652 228.208 14.18 229.816 12.476C231.424 10.748 233.56 9.88401 236.224 9.88401C240.736 9.88401 242.992 12.548 242.992 17.876H232.876C232.852 18.236 232.84 18.8 232.84 19.568C232.84 21.152 233.056 22.472 233.488 23.528C233.944 24.584 234.52 25.352 235.216 25.832C235.936 26.312 236.704 26.552 237.52 26.552ZM236.008 10.64C235.144 10.64 234.424 11.18 233.848 12.26C233.296 13.316 232.948 14.96 232.804 17.192H238.456C238.504 15.296 238.312 13.736 237.88 12.512C237.472 11.264 236.848 10.64 236.008 10.64Z" fill="black"/>
<path d="M262.789 25.04C262.789 26.144 262.957 26.948 263.293 27.452C263.629 27.956 264.229 28.208 265.093 28.208V28.964C264.349 28.892 263.605 28.856 262.861 28.856C260.725 28.856 258.973 29.024 257.605 29.36V26.264C256.789 28.424 255.229 29.504 252.925 29.504C250.669 29.504 248.869 28.688 247.525 27.056C246.205 25.4 245.557 22.916 245.581 19.604C245.581 17.492 245.917 15.716 246.589 14.276C247.285 12.812 248.233 11.72 249.433 11C250.657 10.256 252.049 9.88401 253.609 9.88401C255.361 9.88401 256.693 10.34 257.605 11.252V5.13201C257.605 4.02801 257.425 3.22401 257.065 2.72001C256.729 2.21601 256.141 1.96401 255.301 1.96401V1.20801C256.069 1.28001 256.813 1.31601 257.533 1.31601C259.621 1.31601 261.373 1.14801 262.789 0.812012V25.04ZM254.401 27.956C255.193 27.956 255.889 27.668 256.489 27.092C257.113 26.516 257.485 25.736 257.605 24.752V12.152C257.005 11.336 256.129 10.928 254.977 10.928C253.705 10.928 252.721 11.66 252.025 13.124C251.329 14.588 250.993 16.772 251.017 19.676C250.993 22.604 251.269 24.716 251.845 26.012C252.445 27.308 253.297 27.956 254.401 27.956Z" fill="black"/>
<path d="M271.273 1.10001C272.281 1.10001 273.073 1.35201 273.649 1.85601C274.249 2.33601 274.549 3.00801 274.549 3.87201C274.549 4.73601 274.249 5.42001 273.649 5.92401C273.073 6.40401 272.281 6.64401 271.273 6.64401C270.265 6.64401 269.461 6.40401 268.861 5.92401C268.285 5.42001 267.997 4.73601 267.997 3.87201C267.997 3.00801 268.285 2.33601 268.861 1.85601C269.461 1.35201 270.265 1.10001 271.273 1.10001ZM274.081 25.652C274.081 26.636 274.249 27.32 274.585 27.704C274.945 28.064 275.545 28.244 276.385 28.244V29C273.985 28.904 272.389 28.856 271.597 28.856C270.853 28.856 269.185 28.904 266.593 29V28.244C267.457 28.244 268.057 28.064 268.393 27.704C268.729 27.32 268.897 26.636 268.897 25.652V14.312C268.897 13.208 268.729 12.404 268.393 11.9C268.057 11.396 267.457 11.144 266.593 11.144V10.388C267.361 10.46 268.105 10.496 268.825 10.496C270.961 10.496 272.713 10.328 274.081 9.99201V25.652Z" fill="black"/>
<path d="M285.256 10.388H289.504V11.108H285.256V25.652C285.256 26.372 285.376 26.888 285.616 27.2C285.88 27.488 286.288 27.632 286.84 27.632C287.872 27.632 288.688 26.912 289.288 25.472L289.9 25.796C288.988 28.268 287.344 29.504 284.968 29.504C283.384 29.504 282.184 29.096 281.368 28.28C280.864 27.776 280.516 27.152 280.324 26.408C280.156 25.64 280.072 24.596 280.072 23.276V11.108H277.048V10.388H280.072V5.63601C282.064 5.63601 283.792 5.25201 285.256 4.48401V10.388Z" fill="black"/>
<path d="M297.732 9.88401C298.644 9.88401 299.484 10.004 300.252 10.244C301.02 10.46 301.608 10.712 302.016 11C302.256 11.168 302.472 11.252 302.664 11.252C302.88 11.252 303.06 11.144 303.204 10.928C303.372 10.688 303.48 10.352 303.528 9.92001H304.284C304.188 11.144 304.14 13.256 304.14 16.256H303.384C303.168 14.672 302.688 13.352 301.944 12.296C301.224 11.216 300.168 10.676 298.776 10.676C298.056 10.676 297.456 10.88 296.976 11.288C296.52 11.696 296.292 12.26 296.292 12.98C296.292 13.796 296.568 14.504 297.12 15.104C297.672 15.68 298.536 16.388 299.712 17.228L300.756 17.984C302.22 19.088 303.3 20.072 303.996 20.936C304.692 21.8 305.04 22.88 305.04 24.176C305.04 25.232 304.728 26.168 304.104 26.984C303.504 27.8 302.688 28.424 301.656 28.856C300.624 29.288 299.484 29.504 298.236 29.504C296.916 29.504 295.788 29.252 294.852 28.748C294.084 28.364 293.532 28.112 293.196 27.992C292.956 27.92 292.74 28.004 292.548 28.244C292.38 28.46 292.248 28.796 292.152 29.252H291.396C291.492 27.884 291.54 25.484 291.54 22.052H292.296C292.776 26.468 294.396 28.676 297.156 28.676C297.852 28.676 298.44 28.472 298.92 28.064C299.424 27.632 299.676 26.984 299.676 26.12C299.676 25.448 299.52 24.848 299.208 24.32C298.92 23.792 298.548 23.324 298.092 22.916C297.636 22.508 296.952 21.944 296.04 21.224C294.96 20.36 294.132 19.664 293.556 19.136C293.004 18.608 292.524 17.984 292.116 17.264C291.732 16.544 291.54 15.74 291.54 14.852C291.54 13.316 292.14 12.104 293.34 11.216C294.54 10.328 296.004 9.88401 297.732 9.88401Z" fill="black"/>
</svg>
