<svg width="263" height="36" viewBox="0 0 263 36" fill="none" xmlns="http://www.w3.org/2000/svg">
<path d="M13.292 3.00801C14.732 3.00801 15.956 3.21201 16.964 3.62001C17.972 4.02801 18.956 4.60401 19.916 5.34801C20.18 5.56401 20.408 5.67201 20.6 5.67201C21.08 5.67201 21.392 4.95201 21.536 3.51201H22.364C22.268 5.14401 22.22 8.04801 22.22 12.224H21.392C21.176 10.448 20.888 9.09201 20.528 8.15601C20.168 7.22001 19.556 6.40401 18.692 5.70801C18.092 5.13201 17.396 4.70001 16.604 4.41201C15.812 4.10001 14.984 3.94401 14.12 3.94401C11.696 3.94401 9.896 5.13201 8.72 7.50801C7.544 9.86001 6.956 12.8 6.956 16.328C6.956 19.832 7.568 22.76 8.792 25.112C10.016 27.464 11.84 28.64 14.264 28.64C15.08 28.64 15.884 28.496 16.676 28.208C17.492 27.896 18.176 27.452 18.728 26.876C19.616 26.204 20.228 25.364 20.564 24.356C20.924 23.348 21.2 21.872 21.392 19.928H22.22C22.22 24.272 22.268 27.296 22.364 29H21.536C21.464 28.232 21.356 27.692 21.212 27.38C21.092 27.044 20.912 26.876 20.672 26.876C20.48 26.876 20.228 26.972 19.916 27.164C18.836 27.932 17.804 28.52 16.82 28.928C15.836 29.312 14.648 29.504 13.256 29.504C10.712 29.504 8.48 28.988 6.56 27.956C4.664 26.924 3.188 25.436 2.132 23.492C1.076 21.524 0.548004 19.184 0.548004 16.472C0.548004 13.832 1.088 11.492 2.168 9.45201C3.248 7.41201 4.748 5.82801 6.668 4.70001C8.612 3.57201 10.82 3.00801 13.292 3.00801Z" fill="black"/>
<path d="M34.5348 9.88401C37.2948 9.88401 39.4548 10.676 41.0148 12.26C42.5748 13.82 43.3548 16.304 43.3548 19.712C43.3548 23.12 42.5748 25.604 41.0148 27.164C39.4548 28.724 37.2948 29.504 34.5348 29.504C31.7988 29.504 29.6388 28.724 28.0548 27.164C26.4948 25.604 25.7148 23.12 25.7148 19.712C25.7148 16.304 26.4948 13.82 28.0548 12.26C29.6388 10.676 31.7988 9.88401 34.5348 9.88401ZM34.5348 10.604C33.5028 10.604 32.6748 11.36 32.0508 12.872C31.4508 14.36 31.1508 16.64 31.1508 19.712C31.1508 22.784 31.4508 25.064 32.0508 26.552C32.6748 28.04 33.5028 28.784 34.5348 28.784C35.5908 28.784 36.4188 28.052 37.0188 26.588C37.6188 25.1 37.9188 22.808 37.9188 19.712C37.9188 16.616 37.6068 14.324 36.9828 12.836C36.3828 11.348 35.5668 10.604 34.5348 10.604Z" fill="black"/>
<path d="M63.3143 25.04C63.3143 26.144 63.4823 26.948 63.8183 27.452C64.1543 27.956 64.7543 28.208 65.6183 28.208V28.964C64.8743 28.892 64.1303 28.856 63.3863 28.856C61.2503 28.856 59.4983 29.024 58.1303 29.36V26.264C57.3143 28.424 55.7543 29.504 53.4503 29.504C51.1943 29.504 49.3943 28.688 48.0503 27.056C46.7303 25.4 46.0823 22.916 46.1063 19.604C46.1063 17.492 46.4423 15.716 47.1143 14.276C47.8103 12.812 48.7583 11.72 49.9583 11C51.1823 10.256 52.5743 9.88401 54.1343 9.88401C55.8863 9.88401 57.2183 10.34 58.1303 11.252V5.13201C58.1303 4.02801 57.9503 3.22401 57.5903 2.72001C57.2543 2.21601 56.6663 1.96401 55.8263 1.96401V1.20801C56.5943 1.28001 57.3383 1.31601 58.0583 1.31601C60.1463 1.31601 61.8983 1.14801 63.3143 0.812012V25.04ZM54.9263 27.956C55.7183 27.956 56.4143 27.668 57.0143 27.092C57.6383 26.516 58.0103 25.736 58.1303 24.752V12.152C57.5303 11.336 56.6543 10.928 55.5023 10.928C54.2303 10.928 53.2463 11.66 52.5503 13.124C51.8543 14.588 51.5183 16.772 51.5423 19.676C51.5183 22.604 51.7943 24.716 52.3703 26.012C52.9703 27.308 53.8223 27.956 54.9263 27.956Z" fill="black"/>
<path d="M71.7979 1.10001C72.8059 1.10001 73.5979 1.35201 74.1739 1.85601C74.7739 2.33601 75.0739 3.00801 75.0739 3.87201C75.0739 4.73601 74.7739 5.42001 74.1739 5.92401C73.5979 6.40401 72.8059 6.64401 71.7979 6.64401C70.7899 6.64401 69.9859 6.40401 69.3859 5.92401C68.8099 5.42001 68.5219 4.73601 68.5219 3.87201C68.5219 3.00801 68.8099 2.33601 69.3859 1.85601C69.9859 1.35201 70.7899 1.10001 71.7979 1.10001ZM74.6059 25.652C74.6059 26.636 74.7739 27.32 75.1099 27.704C75.4699 28.064 76.0699 28.244 76.9099 28.244V29C74.5099 28.904 72.9139 28.856 72.1219 28.856C71.3779 28.856 69.7099 28.904 67.1179 29V28.244C67.9819 28.244 68.5819 28.064 68.9179 27.704C69.2539 27.32 69.4219 26.636 69.4219 25.652V14.312C69.4219 13.208 69.2539 12.404 68.9179 11.9C68.5819 11.396 67.9819 11.144 67.1179 11.144V10.388C67.8859 10.46 68.6299 10.496 69.3499 10.496C71.4859 10.496 73.2379 10.328 74.6059 9.99201V25.652Z" fill="black"/>
<path d="M91.8654 9.88401C93.6894 9.88401 95.0094 10.352 95.8254 11.288C96.2334 11.744 96.5214 12.332 96.6894 13.052C96.8574 13.772 96.9414 14.744 96.9414 15.968V25.652C96.9414 26.636 97.1094 27.32 97.4454 27.704C97.8054 28.064 98.4054 28.244 99.2454 28.244V29C96.8454 28.904 95.2614 28.856 94.4934 28.856C93.7734 28.856 92.2134 28.904 89.8134 29V28.244C90.5334 28.244 91.0374 28.064 91.3254 27.704C91.6134 27.32 91.7574 26.636 91.7574 25.652V14.456C91.7574 13.472 91.5894 12.728 91.2534 12.224C90.9414 11.72 90.3654 11.468 89.5254 11.468C88.5414 11.468 87.7014 11.876 87.0054 12.692C86.3094 13.484 85.9614 14.468 85.9614 15.644V25.652C85.9614 26.636 86.1054 27.32 86.3934 27.704C86.6814 28.064 87.1854 28.244 87.9054 28.244V29C85.6974 28.904 84.2094 28.856 83.4414 28.856C82.7214 28.856 81.0654 28.904 78.4734 29V28.244C79.3374 28.244 79.9374 28.064 80.2734 27.704C80.6094 27.32 80.7774 26.636 80.7774 25.652V14.312C80.7774 13.208 80.6094 12.404 80.2734 11.9C79.9374 11.396 79.3374 11.144 78.4734 11.144V10.388C79.2414 10.46 79.9854 10.496 80.7054 10.496C82.8414 10.496 84.5934 10.328 85.9614 9.99201V13.232C87.0414 11 89.0094 9.88401 91.8654 9.88401Z" fill="black"/>
<path d="M117.405 13.844C116.925 13.844 116.517 13.688 116.181 13.376C115.845 13.04 115.677 12.572 115.677 11.972C115.677 11.396 115.821 10.808 116.109 10.208C115.533 10.448 115.053 10.724 114.669 11.036C114.309 11.324 113.997 11.696 113.733 12.152C114.477 13.04 114.849 14.192 114.849 15.608C114.849 17.504 114.189 18.932 112.869 19.892C111.573 20.852 109.845 21.332 107.685 21.332H107.037C106.053 21.908 105.561 22.544 105.561 23.24C105.561 24.008 106.041 24.392 107.001 24.392H110.925C113.037 24.392 114.717 24.788 115.965 25.58C117.237 26.348 117.873 27.536 117.873 29.144C117.873 30.368 117.477 31.472 116.685 32.456C115.917 33.464 114.741 34.268 113.157 34.868C111.573 35.468 109.629 35.768 107.325 35.768C104.997 35.768 103.125 35.468 101.709 34.868C100.317 34.292 99.6206 33.452 99.6206 32.348C99.6206 31.604 99.9566 30.932 100.629 30.332C101.301 29.756 102.297 29.3 103.617 28.964L103.941 29.54C103.077 30.26 102.645 31.088 102.645 32.024C102.645 33.032 103.101 33.8 104.013 34.328C104.925 34.88 106.185 35.156 107.793 35.156C109.473 35.156 110.829 34.82 111.861 34.148C112.917 33.476 113.445 32.528 113.445 31.304C113.445 30.512 113.145 29.888 112.545 29.432C111.969 28.976 110.949 28.748 109.485 28.748H107.253C105.717 28.748 104.517 28.496 103.653 27.992C102.789 27.464 102.357 26.672 102.357 25.616C102.357 24.728 102.669 23.936 103.293 23.24C103.917 22.544 104.865 21.872 106.137 21.224C104.409 21.008 103.041 20.432 102.033 19.496C101.025 18.56 100.521 17.264 100.521 15.608C100.521 13.712 101.169 12.284 102.465 11.324C103.785 10.364 105.525 9.88401 107.685 9.88401C110.085 9.88401 111.921 10.448 113.193 11.576C113.649 10.928 114.213 10.412 114.885 10.028C115.557 9.64401 116.241 9.45201 116.937 9.45201C117.657 9.45201 118.221 9.66801 118.629 10.1C119.061 10.508 119.277 11.048 119.277 11.72C119.277 12.392 119.085 12.92 118.701 13.304C118.341 13.664 117.909 13.844 117.405 13.844ZM107.685 20.684C108.357 20.684 108.861 20.3 109.197 19.532C109.557 18.764 109.737 17.456 109.737 15.608C109.737 13.76 109.557 12.452 109.197 11.684C108.861 10.916 108.357 10.532 107.685 10.532C107.013 10.532 106.497 10.916 106.137 11.684C105.801 12.452 105.633 13.76 105.633 15.608C105.633 17.456 105.801 18.764 106.137 19.532C106.497 20.3 107.013 20.684 107.685 20.684Z" fill="black"/>
<path d="M137.425 18.704V24.968C137.425 25.928 137.521 26.636 137.713 27.092C137.929 27.524 138.289 27.812 138.793 27.956C139.321 28.1 140.149 28.184 141.277 28.208V29C138.325 28.928 136.129 28.892 134.689 28.892C133.489 28.892 131.977 28.916 130.153 28.964L129.001 29V28.28C129.793 28.232 130.369 28.136 130.729 27.992C131.113 27.848 131.365 27.572 131.485 27.164C131.629 26.756 131.701 26.096 131.701 25.184V7.32801C131.701 6.41601 131.629 5.75601 131.485 5.34801C131.365 4.94001 131.113 4.66401 130.729 4.52001C130.369 4.37601 129.793 4.28001 129.001 4.23201V3.51201C130.225 3.58401 132.049 3.62001 134.473 3.62001L138.469 3.58401C138.949 3.56001 139.501 3.54801 140.125 3.54801C143.365 3.54801 145.837 4.19601 147.541 5.49201C149.245 6.76401 150.097 8.48001 150.097 10.64C150.097 11.96 149.761 13.232 149.089 14.456C148.417 15.656 147.277 16.664 145.669 17.48C144.085 18.296 141.973 18.704 139.333 18.704H137.425ZM139.657 4.23201C139.009 4.23201 138.529 4.31601 138.217 4.48401C137.929 4.65201 137.725 4.95201 137.605 5.38401C137.485 5.81601 137.425 6.46401 137.425 7.32801V17.984H138.973C140.917 17.984 142.261 17.36 143.005 16.112C143.749 14.864 144.121 13.172 144.121 11.036C144.121 8.70801 143.773 6.99201 143.077 5.88801C142.405 4.78401 141.265 4.23201 139.657 4.23201Z" fill="black"/>
<path d="M164.088 9.88401C165.168 9.88401 165.984 10.208 166.536 10.856C167.088 11.504 167.364 12.284 167.364 13.196C167.364 14.084 167.1 14.816 166.572 15.392C166.068 15.944 165.396 16.22 164.556 16.22C163.74 16.22 163.092 16.016 162.612 15.608C162.132 15.176 161.892 14.612 161.892 13.916C161.892 12.764 162.42 11.828 163.476 11.108C163.38 11.084 163.236 11.072 163.044 11.072C162.804 11.072 162.612 11.096 162.468 11.144C161.556 11.288 160.776 11.84 160.128 12.8C159.504 13.76 159.192 14.744 159.192 15.752V25.292C159.192 26.396 159.456 27.164 159.984 27.596C160.536 28.028 161.4 28.244 162.576 28.244V29C162.24 29 161.964 28.988 161.748 28.964C159.3 28.892 157.668 28.856 156.852 28.856C156.204 28.856 154.728 28.892 152.424 28.964C152.232 28.988 151.992 29 151.704 29V28.244C152.568 28.244 153.168 28.064 153.504 27.704C153.84 27.32 154.008 26.636 154.008 25.652V14.312C154.008 13.208 153.84 12.404 153.504 11.9C153.168 11.396 152.568 11.144 151.704 11.144V10.388C152.472 10.46 153.216 10.496 153.936 10.496C156.072 10.496 157.824 10.328 159.192 9.99201V13.34C159.648 12.308 160.308 11.48 161.172 10.856C162.036 10.208 163.008 9.88401 164.088 9.88401Z" fill="black"/>
<path d="M173.261 29.252C171.725 29.252 170.573 28.856 169.805 28.064C169.061 27.272 168.689 26.228 168.689 24.932C168.689 23.852 168.965 22.964 169.517 22.268C170.093 21.548 170.777 20.996 171.569 20.612C172.385 20.228 173.417 19.82 174.665 19.388C175.985 18.932 176.945 18.524 177.545 18.164C178.169 17.78 178.481 17.264 178.481 16.616V13.808C178.481 12.8 178.241 12.02 177.761 11.468C177.305 10.892 176.585 10.604 175.601 10.604C174.449 10.604 173.573 10.892 172.973 11.468C173.645 11.708 174.161 12.068 174.521 12.548C174.905 13.028 175.097 13.592 175.097 14.24C175.097 15.056 174.821 15.704 174.269 16.184C173.717 16.664 173.045 16.904 172.253 16.904C171.413 16.904 170.765 16.64 170.309 16.112C169.853 15.584 169.625 14.924 169.625 14.132C169.625 13.46 169.781 12.896 170.093 12.44C170.429 11.96 170.933 11.516 171.605 11.108C172.253 10.724 173.045 10.424 173.981 10.208C174.941 9.99201 175.985 9.88401 177.113 9.88401C178.289 9.88401 179.309 10.004 180.173 10.244C181.037 10.484 181.757 10.892 182.333 11.468C182.861 11.996 183.209 12.644 183.377 13.412C183.569 14.18 183.665 15.224 183.665 16.544V26.336C183.665 26.912 183.713 27.32 183.809 27.56C183.929 27.8 184.145 27.92 184.457 27.92C184.817 27.92 185.249 27.716 185.753 27.308L186.113 27.92C185.033 28.808 183.713 29.252 182.153 29.252C180.833 29.252 179.909 28.988 179.381 28.46C178.853 27.932 178.577 27.224 178.553 26.336C177.353 28.28 175.589 29.252 173.261 29.252ZM176.033 26.948C176.969 26.948 177.785 26.456 178.481 25.472V18.092C178.193 18.572 177.581 19.1 176.645 19.676C175.709 20.276 175.001 20.876 174.521 21.476C174.041 22.076 173.801 22.94 173.801 24.068C173.801 25.052 174.005 25.784 174.413 26.264C174.821 26.72 175.361 26.948 176.033 26.948Z" fill="black"/>
<path d="M196.501 9.88401C197.389 9.88401 198.229 9.98001 199.021 10.172C199.813 10.364 200.473 10.628 201.001 10.964C201.625 11.348 202.105 11.84 202.441 12.44C202.801 13.016 202.981 13.652 202.981 14.348C202.981 15.188 202.717 15.884 202.189 16.436C201.661 16.964 200.977 17.228 200.137 17.228C199.297 17.228 198.625 16.988 198.121 16.508C197.617 16.028 197.365 15.38 197.365 14.564C197.365 13.844 197.593 13.22 198.049 12.692C198.505 12.164 199.069 11.804 199.741 11.612C199.549 11.348 199.249 11.144 198.841 11C198.457 10.832 198.037 10.748 197.581 10.748C196.141 10.748 195.013 11.54 194.197 13.124C193.405 14.684 193.009 16.736 193.009 19.28C193.009 21.848 193.465 23.696 194.377 24.824C195.289 25.952 196.429 26.516 197.797 26.516C198.613 26.516 199.429 26.3 200.245 25.868C201.085 25.436 201.841 24.68 202.513 23.6L203.125 23.816C202.645 25.376 201.805 26.72 200.605 27.848C199.405 28.952 197.857 29.504 195.961 29.504C193.489 29.504 191.473 28.688 189.913 27.056C188.353 25.424 187.573 23 187.573 19.784C187.573 17.672 187.957 15.872 188.725 14.384C189.493 12.896 190.549 11.78 191.893 11.036C193.237 10.268 194.773 9.88401 196.501 9.88401Z" fill="black"/>
<path d="M212.309 10.388H216.557V11.108H212.309V25.652C212.309 26.372 212.429 26.888 212.669 27.2C212.933 27.488 213.341 27.632 213.893 27.632C214.925 27.632 215.741 26.912 216.341 25.472L216.953 25.796C216.041 28.268 214.397 29.504 212.021 29.504C210.437 29.504 209.237 29.096 208.421 28.28C207.917 27.776 207.569 27.152 207.377 26.408C207.209 25.64 207.125 24.596 207.125 23.276V11.108H204.101V10.388H207.125V5.63601C209.117 5.63601 210.845 5.25201 212.309 4.48401V10.388Z" fill="black"/>
<path d="M222.337 1.10001C223.345 1.10001 224.137 1.35201 224.713 1.85601C225.313 2.33601 225.613 3.00801 225.613 3.87201C225.613 4.73601 225.313 5.42001 224.713 5.92401C224.137 6.40401 223.345 6.64401 222.337 6.64401C221.329 6.64401 220.525 6.40401 219.925 5.92401C219.349 5.42001 219.061 4.73601 219.061 3.87201C219.061 3.00801 219.349 2.33601 219.925 1.85601C220.525 1.35201 221.329 1.10001 222.337 1.10001ZM225.145 25.652C225.145 26.636 225.313 27.32 225.649 27.704C226.009 28.064 226.609 28.244 227.449 28.244V29C225.049 28.904 223.453 28.856 222.661 28.856C221.917 28.856 220.249 28.904 217.657 29V28.244C218.521 28.244 219.121 28.064 219.457 27.704C219.793 27.32 219.961 26.636 219.961 25.652V14.312C219.961 13.208 219.793 12.404 219.457 11.9C219.121 11.396 218.521 11.144 217.657 11.144V10.388C218.425 10.46 219.169 10.496 219.889 10.496C222.025 10.496 223.777 10.328 225.145 9.99201V25.652Z" fill="black"/>
<path d="M238.372 9.88401C239.26 9.88401 240.1 9.98001 240.892 10.172C241.684 10.364 242.344 10.628 242.872 10.964C243.496 11.348 243.976 11.84 244.312 12.44C244.672 13.016 244.852 13.652 244.852 14.348C244.852 15.188 244.588 15.884 244.06 16.436C243.532 16.964 242.848 17.228 242.008 17.228C241.168 17.228 240.496 16.988 239.992 16.508C239.488 16.028 239.236 15.38 239.236 14.564C239.236 13.844 239.464 13.22 239.92 12.692C240.376 12.164 240.94 11.804 241.612 11.612C241.42 11.348 241.12 11.144 240.712 11C240.328 10.832 239.908 10.748 239.452 10.748C238.012 10.748 236.884 11.54 236.068 13.124C235.276 14.684 234.88 16.736 234.88 19.28C234.88 21.848 235.336 23.696 236.248 24.824C237.16 25.952 238.3 26.516 239.668 26.516C240.484 26.516 241.3 26.3 242.116 25.868C242.956 25.436 243.712 24.68 244.384 23.6L244.996 23.816C244.516 25.376 243.676 26.72 242.476 27.848C241.276 28.952 239.728 29.504 237.832 29.504C235.36 29.504 233.344 28.688 231.784 27.056C230.224 25.424 229.444 23 229.444 19.784C229.444 17.672 229.828 15.872 230.596 14.384C231.364 12.896 232.42 11.78 233.764 11.036C235.108 10.268 236.644 9.88401 238.372 9.88401Z" fill="black"/>
<path d="M257.456 26.552C259.424 26.552 261.008 25.592 262.208 23.672L262.856 23.888C262.376 25.448 261.512 26.78 260.264 27.884C259.04 28.964 257.504 29.504 255.656 29.504C253.112 29.504 251.084 28.7 249.572 27.092C248.084 25.46 247.34 23.06 247.34 19.892C247.34 16.652 248.144 14.18 249.752 12.476C251.36 10.748 253.496 9.88401 256.16 9.88401C260.672 9.88401 262.928 12.548 262.928 17.876H252.812C252.788 18.236 252.776 18.8 252.776 19.568C252.776 21.152 252.992 22.472 253.424 23.528C253.88 24.584 254.456 25.352 255.152 25.832C255.872 26.312 256.64 26.552 257.456 26.552ZM255.944 10.64C255.08 10.64 254.36 11.18 253.784 12.26C253.232 13.316 252.884 14.96 252.74 17.192H258.392C258.44 15.296 258.248 13.736 257.816 12.512C257.408 11.264 256.784 10.64 255.944 10.64Z" fill="black"/>
</svg>
