<svg width="238" height="36" viewBox="0 0 238 36" fill="none" xmlns="http://www.w3.org/2000/svg">
<path d="M31.932 24.74V26H21.96V24.74L23.904 24.704L22.212 6.23602L15.264 21.968H14.148L6.69599 6.12802L6.01199 24.704L7.95599 24.74V26H0.071991V24.74L1.47599 24.704L4.93199 3.17602L2.95199 3.14002V1.88002H11.232L17.028 13.652L22.032 1.88002H29.484V3.14002L27.576 3.17602L30.528 24.704L31.932 24.74Z" fill="black"/>
<path d="M49.6322 9.80002V10.952L48.5882 10.988L44.0162 21.608C42.7682 24.56 41.4722 27.26 40.1282 29.708C38.8082 32.156 37.6082 34.1 36.5282 35.54L32.2802 31.508C35.2562 29.804 37.9202 27.932 40.2722 25.892L38.2922 26L32.7482 10.988L31.7042 10.952V9.80002H40.2362V10.952L38.7242 10.988L42.0002 22.004L44.9522 10.988L43.4402 10.952V9.80002H49.6322Z" fill="black"/>
<path d="M64.2313 24.704L65.9953 24.74V26H56.4913V24.74L58.2553 24.704V3.17602L56.4913 3.14002V1.88002H65.9953V3.14002L64.2313 3.17602V24.704ZM80.3233 24.74V26H69.1273V24.74L70.8913 24.704L64.7713 14.156L72.5833 3.17602L70.8193 3.14002V1.88002H79.3873V3.14002L77.4433 3.17602L69.4513 10.916L78.5593 24.704L80.3233 24.74Z" fill="black"/>
<path d="M82.1205 2.20402L86.7285 1.16002V5.26402L82.1205 5.94802V2.20402ZM87.0885 24.848L88.4205 24.956V26H80.6805V24.956L82.0125 24.848L81.9045 12.032L80.5365 12.32L80.1765 11.276L86.6925 9.26002L87.1965 10.124L87.0885 24.848Z" fill="black"/>
<path d="M107.554 24.956V26H99.8499V24.956L101.182 24.848V17.252C101.182 16.196 100.882 15.38 100.282 14.804C99.7059 14.228 98.9019 13.928 97.8699 13.904L96.7179 15.092L96.5739 24.848L97.9059 24.956V26H90.1659V24.956L91.4979 24.848L91.3899 11.96L90.0219 12.284L89.6619 11.204L95.3499 9.44002L96.6099 13.472L99.5979 9.18802C101.878 9.18802 103.558 9.72802 104.638 10.808C105.718 11.888 106.258 13.556 106.258 15.812V24.848L107.554 24.956Z" fill="black"/>
<path d="M126.507 23.516L121.251 26.36C120.603 25.976 120.123 25.472 119.811 24.848C119.523 24.2 119.355 23.372 119.307 22.364L115.743 26.54C114.351 26.54 113.115 26.228 112.035 25.604C110.979 24.956 110.151 24.08 109.551 22.976C108.951 21.848 108.651 20.576 108.651 19.16C108.651 17.936 108.855 16.64 109.263 15.272C109.671 13.904 110.163 12.836 110.739 12.068C111.195 11.42 112.023 10.796 113.223 10.196C114.423 9.57202 115.431 9.26002 116.247 9.26002C116.967 9.26002 117.951 9.38002 119.199 9.62002L119.127 3.28402L117.759 3.57202L117.399 2.52802L124.059 0.512024L124.563 1.37602L124.347 20.024C124.347 20.888 124.395 21.536 124.491 21.968C124.587 22.376 124.755 22.736 124.995 23.048L126.075 22.544L126.507 23.516ZM113.835 17C113.835 18.104 114.015 19.064 114.375 19.88C114.735 20.696 115.203 21.32 115.779 21.752C116.379 22.184 117.015 22.4 117.687 22.4L119.307 20.78L119.235 13.508C117.675 12.764 116.175 12.26 114.735 11.996C114.135 13.364 113.835 15.032 113.835 17Z" fill="black"/>
<path d="M141.821 9.26002C144.221 9.26002 146.153 9.96802 147.617 11.384C149.081 12.8 149.813 14.816 149.813 17.432C149.813 18.56 149.609 19.724 149.201 20.924C148.817 22.124 148.241 23.18 147.473 24.092C146.705 24.836 145.805 25.436 144.773 25.892C143.765 26.324 142.697 26.54 141.569 26.54C139.169 26.54 137.237 25.832 135.773 24.416C134.309 23 133.577 20.984 133.577 18.368C133.577 17.264 133.781 16.112 134.189 14.912C134.597 13.712 135.185 12.656 135.953 11.744C136.721 11 137.609 10.4 138.617 9.94402C139.649 9.48802 140.717 9.26002 141.821 9.26002ZM138.761 16.64C138.761 18.92 139.205 20.624 140.093 21.752C141.005 22.88 142.337 23.552 144.089 23.768C144.257 23.048 144.389 22.244 144.485 21.356C144.581 20.468 144.629 19.736 144.629 19.16C144.629 16.856 144.173 15.152 143.261 14.048C142.373 12.92 141.065 12.248 139.337 12.032C139.169 12.776 139.025 13.592 138.905 14.48C138.809 15.368 138.761 16.088 138.761 16.64Z" fill="black"/>
<path d="M155.378 2.81602C155.522 3.92002 155.834 5.20402 156.314 6.66802C156.818 8.10802 157.274 9.15202 157.682 9.80002H160.85V11.312L157.718 11.204L157.646 24.848L160.418 24.956V26H151.238V24.956L152.57 24.848L152.498 11.132H150.482V9.80002H152.39C152.198 9.15202 152.018 8.37202 151.85 7.46002C151.706 6.54802 151.634 5.76802 151.634 5.12002C151.634 4.66402 151.646 4.32802 151.67 4.11202C151.886 3.48802 152.282 2.92402 152.858 2.42002C153.458 1.89202 154.118 1.48402 154.838 1.19602C155.582 0.884023 156.266 0.728023 156.89 0.728023C157.946 0.728023 159.002 0.896023 160.058 1.23202C161.138 1.54402 162.098 1.96402 162.938 2.49202L159.95 6.77602C159.398 6.15202 158.69 5.46802 157.826 4.72402C156.962 3.98002 156.146 3.34402 155.378 2.81602Z" fill="black"/>
<path d="M191.576 24.74V26H180.74V24.74L182.504 24.704L180.848 18.8H174.728L173.54 24.704L175.376 24.74V26H167.24V24.74L169.004 24.704L177.068 2.16802L181.532 1.55602L189.812 24.704L191.576 24.74ZM180.452 17.468L177.284 6.20002L175.016 17.468H180.452Z" fill="black"/>
<path d="M216.125 24.74V26H207.449L202.553 16.352L202.661 16.28C202.109 16.328 201.329 16.376 200.321 16.424V24.704L202.085 24.74V26H192.581V24.74L194.345 24.704V3.17602L192.581 3.14002V1.88002L199.529 1.95202L204.893 1.52002C206.621 1.52002 208.097 1.84402 209.321 2.49202C210.569 3.11602 211.505 3.96802 212.129 5.04802C212.777 6.10402 213.101 7.28002 213.101 8.57602C213.101 10.064 212.669 11.36 211.805 12.464C210.941 13.568 209.645 14.456 207.917 15.128L214.361 24.704L216.125 24.74ZM200.321 15.02C202.313 14.9 203.873 14.36 205.001 13.4C206.129 12.416 206.693 11.096 206.693 9.44002C206.693 8.26402 206.417 7.19602 205.865 6.23602C205.313 5.27602 204.557 4.52002 203.597 3.96802C202.637 3.41602 201.545 3.14002 200.321 3.14002V15.02Z" fill="black"/>
<path d="M237.523 1.88002V8.86402L236.119 8.82802L236.047 7.02802C233.575 5.25202 231.523 3.94402 229.891 3.10402V24.704L232.735 24.74V26H221.071V24.74L223.915 24.704V3.10402C222.283 3.94402 220.231 5.25202 217.759 7.02802L217.687 8.82802L216.283 8.86402V1.88002H237.523Z" fill="black"/>
</svg>
