<svg width="230" height="36" viewBox="0 0 230 36" fill="none" xmlns="http://www.w3.org/2000/svg">
<path d="M15.084 22.4C16.14 22.4 17.16 22.184 18.144 21.752C19.128 21.32 20.04 20.696 20.88 19.88L21.816 20.924C18.864 24.668 15.48 26.54 11.664 26.54C9.48 26.54 7.572 26.048 5.94 25.064C4.332 24.08 3.084 22.688 2.196 20.888C1.308 19.088 0.863998 16.976 0.863998 14.552C0.863998 12.464 1.26 10.448 2.052 8.50396C2.868 6.53596 3.9 4.96396 5.148 3.78796C6.372 2.99596 7.68 2.39596 9.072 1.98796C10.488 1.55596 11.88 1.33996 13.248 1.33996C15.072 1.33996 16.74 1.73596 18.252 2.52796C19.788 3.29596 21 4.37596 21.888 5.76796L17.46 9.47596C16.212 7.26796 14.712 4.87996 12.96 2.31196C11.904 2.74396 10.944 3.48796 10.08 4.54396C9.216 5.59996 8.532 6.85996 8.028 8.32396C7.548 9.78796 7.308 11.312 7.308 12.896C7.308 15.92 7.98 18.26 9.324 19.916C10.692 21.572 12.612 22.4 15.084 22.4Z" fill="black"/>
<path d="M31.0087 9.25996C33.4087 9.25996 35.3407 9.96796 36.8047 11.384C38.2687 12.8 39.0007 14.816 39.0007 17.432C39.0007 18.56 38.7967 19.724 38.3887 20.924C38.0047 22.124 37.4287 23.18 36.6607 24.092C35.8927 24.836 34.9927 25.436 33.9607 25.892C32.9527 26.324 31.8847 26.54 30.7567 26.54C28.3567 26.54 26.4247 25.832 24.9607 24.416C23.4967 23 22.7647 20.984 22.7647 18.368C22.7647 17.264 22.9687 16.112 23.3767 14.912C23.7847 13.712 24.3727 12.656 25.1407 11.744C25.9087 11 26.7967 10.4 27.8047 9.94396C28.8367 9.48796 29.9047 9.25996 31.0087 9.25996ZM27.9487 16.64C27.9487 18.92 28.3927 20.624 29.2807 21.752C30.1927 22.88 31.5247 23.552 33.2767 23.768C33.4447 23.048 33.5767 22.244 33.6727 21.356C33.7687 20.468 33.8167 19.736 33.8167 19.16C33.8167 16.856 33.3607 15.152 32.4487 14.048C31.5607 12.92 30.2527 12.248 28.5247 12.032C28.3567 12.776 28.2127 13.592 28.0927 14.48C27.9967 15.368 27.9487 16.088 27.9487 16.64Z" fill="black"/>
<path d="M58.0933 23.516L52.8373 26.36C52.1893 25.976 51.7093 25.472 51.3973 24.848C51.1093 24.2 50.9413 23.372 50.8933 22.364L47.3293 26.54C45.9373 26.54 44.7013 26.228 43.6213 25.604C42.5653 24.956 41.7373 24.08 41.1373 22.976C40.5373 21.848 40.2373 20.576 40.2373 19.16C40.2373 17.936 40.4413 16.64 40.8493 15.272C41.2573 13.904 41.7493 12.836 42.3253 12.068C42.7813 11.42 43.6093 10.796 44.8093 10.196C46.0093 9.57196 47.0173 9.25996 47.8333 9.25996C48.5533 9.25996 49.5373 9.37996 50.7853 9.61996L50.7133 3.28396L49.3453 3.57196L48.9853 2.52796L55.6453 0.511963L56.1493 1.37596L55.9333 20.024C55.9333 20.888 55.9813 21.536 56.0773 21.968C56.1733 22.376 56.3413 22.736 56.5813 23.048L57.6613 22.544L58.0933 23.516ZM45.4213 17C45.4213 18.104 45.6013 19.064 45.9613 19.88C46.3213 20.696 46.7893 21.32 47.3653 21.752C47.9653 22.184 48.6013 22.4 49.2733 22.4L50.8933 20.78L50.8213 13.508C49.2613 12.764 47.7613 12.26 46.3213 11.996C45.7213 13.364 45.4213 15.032 45.4213 17Z" fill="black"/>
<path d="M60.3588 2.20396L64.9668 1.15996V5.26396L60.3588 5.94796V2.20396ZM65.3268 24.848L66.6588 24.956V26H58.9188V24.956L60.2508 24.848L60.1428 12.032L58.7748 12.32L58.4148 11.276L64.9308 9.25996L65.4348 10.124L65.3268 24.848Z" fill="black"/>
<path d="M85.7922 24.956V26H78.0882V24.956L79.4202 24.848V17.252C79.4202 16.196 79.1202 15.38 78.5202 14.804C77.9442 14.228 77.1402 13.928 76.1082 13.904L74.9562 15.092L74.8122 24.848L76.1442 24.956V26H68.4042V24.956L69.7362 24.848L69.6282 11.96L68.2602 12.284L67.9002 11.204L73.5882 9.43996L74.8482 13.472L77.8362 9.18796C80.1162 9.18796 81.7962 9.72796 82.8762 10.808C83.9562 11.888 84.4962 13.556 84.4962 15.812V24.848L85.7922 24.956Z" fill="black"/>
<path d="M97.6897 23.984C99.0337 24.08 100.174 24.356 101.11 24.812C102.07 25.268 102.814 25.868 103.342 26.612C102.886 27.98 102.154 29.324 101.146 30.644C100.162 31.964 98.9617 33.044 97.5457 33.884C96.1537 34.748 94.6537 35.18 93.0457 35.18C91.4857 35.18 90.2257 34.784 89.2657 33.992C88.3297 33.224 87.8617 32.24 87.8617 31.04C87.8617 30.032 88.1137 28.892 88.6177 27.62C87.7537 27.212 87.0337 26.48 86.4577 25.424L90.0937 21.356C89.1817 20.852 88.4617 20.18 87.9337 19.34C87.4297 18.476 87.1777 17.516 87.1777 16.46C87.1777 15.476 87.3817 14.504 87.7897 13.544C88.1977 12.584 88.7137 11.768 89.3377 11.096C89.9377 10.592 90.7417 10.16 91.7497 9.79996C92.7817 9.43996 93.8617 9.25996 94.9897 9.25996C95.8057 9.25996 96.5137 9.34396 97.1137 9.51196L100.102 4.43596C100.582 4.33996 101.086 4.29196 101.614 4.29196C102.622 4.29196 103.594 4.49596 104.53 4.90396L102.01 9.58396C101.242 9.27196 100.486 9.11596 99.7417 9.11596C99.5017 9.11596 99.1897 9.13996 98.8057 9.18796L98.2657 9.90796C99.3457 10.388 100.198 11.084 100.822 11.996C101.446 12.908 101.758 13.964 101.758 15.164C101.758 16.1 101.542 17.036 101.11 17.972C100.702 18.884 100.198 19.712 99.5977 20.456C98.9977 20.984 98.1817 21.428 97.1497 21.788C96.1417 22.124 95.0857 22.292 93.9817 22.292C92.9257 22.292 91.9537 22.124 91.0657 21.788L90.2377 22.796C90.3817 23.012 90.6937 23.204 91.1737 23.372C91.6537 23.54 92.2297 23.636 92.9017 23.66L97.6897 23.984ZM97.0057 16.496C97.0057 15.008 96.6217 13.844 95.8537 13.004C95.0857 12.164 94.0057 11.648 92.6137 11.456C92.1577 12.776 91.9297 14 91.9297 15.128C91.9297 16.568 92.3137 17.708 93.0817 18.548C93.8497 19.388 94.9417 19.904 96.3577 20.096C96.7897 18.968 97.0057 17.768 97.0057 16.496ZM95.0257 31.4C95.7457 31.4 96.4537 31.316 97.1497 31.148C97.8457 31.004 98.4337 30.824 98.9137 30.608C99.3937 30.392 99.6817 30.2 99.7777 30.032C99.6337 29.696 99.2017 29.36 98.4817 29.024C97.7857 28.712 96.8017 28.52 95.5297 28.448L91.5337 28.232C91.0777 28.208 90.5257 28.148 89.8777 28.052C89.9977 29.012 90.5137 29.804 91.4257 30.428C92.3617 31.076 93.5617 31.4 95.0257 31.4Z" fill="black"/>
<path d="M131.117 8.93596C131.117 11.48 130.025 13.496 127.841 14.984C125.681 16.448 122.513 17.228 118.337 17.324V24.704L122.261 24.74V26H110.597V24.74L112.361 24.704V3.17596L110.597 3.13996V1.87996L117.545 1.95196L122.909 1.69996C124.637 1.69996 126.113 2.02396 127.337 2.67196C128.585 3.31996 129.521 4.19596 130.145 5.29996C130.793 6.40396 131.117 7.61596 131.117 8.93596ZM124.709 9.97996C124.709 8.70796 124.433 7.55596 123.881 6.52396C123.329 5.46796 122.561 4.63996 121.577 4.03996C120.617 3.43996 119.537 3.13996 118.337 3.13996V15.92C120.329 15.8 121.889 15.224 123.017 14.192C124.145 13.136 124.709 11.732 124.709 9.97996Z" fill="black"/>
<path d="M139.187 14.732L139.043 24.848L142.247 24.956V26H132.635V24.956L133.967 24.848L133.859 11.96L132.491 12.284L132.131 11.204L137.819 9.43996L139.043 13.292C139.835 11.684 140.699 10.436 141.635 9.54796C142.163 9.35596 142.799 9.25996 143.543 9.25996C144.551 9.25996 145.499 9.43996 146.387 9.79996L145.235 14.48C144.539 14.336 143.651 14.204 142.571 14.084C141.491 13.964 140.603 13.88 139.907 13.832L139.187 14.732Z" fill="black"/>
<path d="M160.357 24.128L155.065 26.612C154.417 26.156 153.973 25.532 153.733 24.74C152.869 25.268 151.993 25.7 151.105 26.036C150.241 26.372 149.485 26.54 148.837 26.54C147.853 26.54 147.049 26.192 146.425 25.496C145.801 24.8 145.489 23.912 145.489 22.832C145.489 22.352 145.537 21.836 145.633 21.284C145.753 20.708 145.897 20.252 146.065 19.916L153.697 18.692L153.769 17.648C153.817 16.568 153.589 15.728 153.085 15.128C152.581 14.504 151.765 14.192 150.637 14.192C150.133 14.192 149.605 14.252 149.053 14.372C148.501 14.468 148.033 14.6 147.649 14.768L147.073 15.992L146.101 15.632L147.757 10.448C149.605 9.65596 151.357 9.25996 153.013 9.25996C154.717 9.25996 156.109 9.71596 157.189 10.628C158.269 11.516 158.809 12.92 158.809 14.84L158.773 15.56L158.413 20.42L158.341 21.716C158.341 22.148 158.377 22.496 158.449 22.76C158.521 23 158.641 23.252 158.809 23.516L159.925 23.084L160.357 24.128ZM152.185 23.948C152.569 23.948 153.013 23.804 153.517 23.516L153.481 22.76L153.517 21.968L153.625 19.916L150.853 20.564C150.757 20.876 150.709 21.296 150.709 21.824C150.709 22.544 150.853 23.084 151.141 23.444C151.429 23.78 151.777 23.948 152.185 23.948Z" fill="black"/>
<path d="M170.932 22.4C172.42 22.4 173.872 21.86 175.288 20.78L175.864 21.428C174.976 22.964 173.86 24.2 172.516 25.136C171.196 26.072 169.768 26.54 168.232 26.54C166.072 26.54 164.344 25.82 163.048 24.38C161.776 22.916 161.14 20.948 161.14 18.476C161.14 17.012 161.44 15.56 162.04 14.12C162.64 12.68 163.408 11.48 164.344 10.52C165.16 10.112 166.012 9.79996 166.9 9.58396C167.788 9.36796 168.64 9.25996 169.456 9.25996C170.872 9.25996 172.132 9.64396 173.236 10.412C174.34 11.18 175.228 12.296 175.9 13.76L171.76 16.172C171.376 15.092 170.86 14 170.212 12.896C169.564 11.792 169 11.036 168.52 10.628C167.896 11.228 167.356 12.104 166.9 13.256C166.468 14.384 166.252 15.548 166.252 16.748C166.252 18.596 166.66 20 167.476 20.96C168.292 21.92 169.444 22.4 170.932 22.4Z" fill="black"/>
<path d="M188.125 23.156L183.733 26.324C181.957 26.324 180.661 25.892 179.845 25.028C179.053 24.14 178.657 22.724 178.657 20.78V11.204H176.245V10.052C177.253 9.49996 178.345 8.71996 179.521 7.71196C180.721 6.67996 181.813 5.59996 182.797 4.47196L183.985 4.83196L183.805 9.79996H188.017V11.312L183.733 11.24V19.52C183.733 20.672 183.949 21.512 184.381 22.04C184.837 22.568 185.437 22.832 186.181 22.832L187.513 22.076L188.125 23.156Z" fill="black"/>
<path d="M190.929 2.20396L195.537 1.15996V5.26396L190.929 5.94796V2.20396ZM195.897 24.848L197.229 24.956V26H189.489V24.956L190.821 24.848L190.713 12.032L189.345 12.32L188.985 11.276L195.501 9.25996L196.005 10.124L195.897 24.848Z" fill="black"/>
<path d="M208.479 22.4C209.967 22.4 211.419 21.86 212.835 20.78L213.411 21.428C212.523 22.964 211.407 24.2 210.063 25.136C208.743 26.072 207.315 26.54 205.779 26.54C203.619 26.54 201.891 25.82 200.595 24.38C199.323 22.916 198.687 20.948 198.687 18.476C198.687 17.012 198.987 15.56 199.587 14.12C200.187 12.68 200.955 11.48 201.891 10.52C202.707 10.112 203.559 9.79996 204.447 9.58396C205.335 9.36796 206.187 9.25996 207.003 9.25996C208.419 9.25996 209.679 9.64396 210.783 10.412C211.887 11.18 212.775 12.296 213.447 13.76L209.307 16.172C208.923 15.092 208.407 14 207.759 12.896C207.111 11.792 206.547 11.036 206.067 10.628C205.443 11.228 204.903 12.104 204.447 13.256C204.015 14.384 203.799 15.548 203.799 16.748C203.799 18.596 204.207 20 205.023 20.96C205.839 21.92 206.991 22.4 208.479 22.4Z" fill="black"/>
<path d="M222.612 9.25996C224.724 9.25996 226.38 10.028 227.58 11.564C228.804 13.076 229.404 15.128 229.38 17.72L219.444 18.044C219.612 19.46 220.104 20.54 220.92 21.284C221.736 22.028 222.816 22.4 224.16 22.4C226.032 22.4 227.556 21.884 228.732 20.852L229.38 21.428C228.54 23.036 227.4 24.296 225.96 25.208C224.544 26.096 223.032 26.54 221.424 26.54C219.24 26.54 217.5 25.82 216.204 24.38C214.932 22.916 214.296 20.948 214.296 18.476C214.296 17.012 214.584 15.56 215.16 14.12C215.76 12.68 216.516 11.48 217.428 10.52C218.052 10.16 218.856 9.85996 219.84 9.61996C220.824 9.37996 221.748 9.25996 222.612 9.25996ZM224.052 16.532C224.028 14.852 223.788 13.52 223.332 12.536C222.876 11.552 222.228 10.964 221.388 10.772C220.788 11.396 220.296 12.272 219.912 13.4C219.552 14.504 219.372 15.644 219.372 16.82V16.928L224.052 16.532Z" fill="black"/>
</svg>
