<svg width="93" height="27" viewBox="0 0 93 27" fill="none" xmlns="http://www.w3.org/2000/svg">
<path d="M31.184 1.23196C30.368 1.27996 29.78 1.37596 29.42 1.51996C29.06 1.66396 28.808 1.93996 28.664 2.34796C28.544 2.75596 28.484 3.41596 28.484 4.32796V22.184C28.484 23.096 28.544 23.756 28.664 24.164C28.808 24.572 29.06 24.848 29.42 24.992C29.804 25.136 30.392 25.232 31.184 25.28V26C29.864 25.928 27.98 25.892 25.532 25.892C22.964 25.892 21.068 25.928 19.844 26V25.28C20.708 25.232 21.332 25.136 21.716 24.992C22.124 24.848 22.4 24.572 22.544 24.164C22.688 23.756 22.76 23.096 22.76 22.184V3.35596L14.084 26.036H13.508L3.78799 2.85196V20.096C3.78799 21.512 3.85999 22.556 4.004 23.228C4.148 23.876 4.45999 24.356 4.93999 24.668C5.41999 24.956 6.19999 25.16 7.27999 25.28V26C6.34399 25.928 5.04799 25.892 3.39199 25.892C2.07199 25.892 1.02799 25.928 0.259995 26V25.28C1.05199 25.16 1.62799 24.956 1.98799 24.668C2.37199 24.38 2.62399 23.924 2.74399 23.3C2.88799 22.676 2.95999 21.752 2.95999 20.528V4.32796C2.95999 3.41596 2.88799 2.75596 2.74399 2.34796C2.62399 1.93996 2.37199 1.66396 1.98799 1.51996C1.62799 1.37596 1.05199 1.27996 0.259995 1.23196V0.511963C1.02799 0.583962 2.07199 0.619963 3.39199 0.619963C5.59999 0.619963 7.49599 0.583962 9.07999 0.511963L16.352 18.044L22.976 0.619963H25.532C27.98 0.619963 29.864 0.583962 31.184 0.511963V1.23196Z" fill="black"/>
<path d="M43.1433 23.552C45.1113 23.552 46.6953 22.592 47.8953 20.672L48.5433 20.888C48.0633 22.448 47.1993 23.78 45.9513 24.884C44.7273 25.964 43.1913 26.504 41.3433 26.504C38.7993 26.504 36.7713 25.7 35.2593 24.092C33.7713 22.46 33.0273 20.06 33.0273 16.892C33.0273 13.652 33.8313 11.18 35.4393 9.47596C37.0473 7.74796 39.1833 6.88396 41.8473 6.88396C46.3593 6.88396 48.6153 9.54796 48.6153 14.876H38.4993C38.4753 15.236 38.4633 15.8 38.4633 16.568C38.4633 18.152 38.6793 19.472 39.1113 20.528C39.5673 21.584 40.1433 22.352 40.8393 22.832C41.5593 23.312 42.3273 23.552 43.1433 23.552ZM41.6313 7.63996C40.7673 7.63996 40.0473 8.17996 39.4713 9.25996C38.9193 10.316 38.5713 11.96 38.4273 14.192H44.0793C44.1273 12.296 43.9353 10.736 43.5033 9.51196C43.0953 8.26396 42.4713 7.63996 41.6313 7.63996Z" fill="black"/>
<path d="M63.881 6.88396C65.705 6.88396 67.025 7.35196 67.841 8.28796C68.249 8.74396 68.537 9.33196 68.705 10.052C68.873 10.772 68.957 11.744 68.957 12.968V22.652C68.957 23.636 69.125 24.32 69.461 24.704C69.821 25.064 70.421 25.244 71.261 25.244V26C68.861 25.904 67.277 25.856 66.509 25.856C65.789 25.856 64.229 25.904 61.829 26V25.244C62.549 25.244 63.053 25.064 63.341 24.704C63.629 24.32 63.773 23.636 63.773 22.652V11.456C63.773 10.472 63.605 9.72796 63.269 9.22396C62.957 8.71996 62.381 8.46796 61.541 8.46796C60.557 8.46796 59.717 8.87596 59.021 9.69196C58.325 10.484 57.977 11.468 57.977 12.644V22.652C57.977 23.636 58.121 24.32 58.409 24.704C58.697 25.064 59.201 25.244 59.921 25.244V26C57.713 25.904 56.225 25.856 55.457 25.856C54.737 25.856 53.081 25.904 50.489 26V25.244C51.353 25.244 51.953 25.064 52.289 24.704C52.625 24.32 52.793 23.636 52.793 22.652V11.312C52.793 10.208 52.625 9.40396 52.289 8.89996C51.953 8.39596 51.353 8.14396 50.489 8.14396V7.38796C51.257 7.45996 52.001 7.49596 52.721 7.49596C54.857 7.49596 56.609 7.32796 57.977 6.99196V10.232C59.057 7.99996 61.025 6.88396 63.881 6.88396Z" fill="black"/>
<path d="M90.5303 22.076C90.5303 23.18 90.6983 23.984 91.0343 24.488C91.3943 24.992 91.9943 25.244 92.8343 25.244V26C92.0903 25.928 91.3463 25.892 90.6023 25.892C88.5143 25.892 86.7623 26.06 85.3463 26.396V23.156C84.2423 25.388 82.3103 26.504 79.5503 26.504C77.7503 26.504 76.4423 26.036 75.6263 25.1C75.2423 24.644 74.9543 24.056 74.7623 23.336C74.5943 22.592 74.5103 21.62 74.5103 20.42V11.312C74.5103 10.208 74.3303 9.40396 73.9703 8.89996C73.6343 8.39596 73.0463 8.14396 72.2063 8.14396V7.38796C72.9503 7.45996 73.6943 7.49596 74.4383 7.49596C76.5263 7.49596 78.2783 7.32796 79.6943 6.99196V21.896C79.6943 22.904 79.8383 23.66 80.1263 24.164C80.4383 24.668 81.0143 24.92 81.8543 24.92C82.8143 24.92 83.6303 24.524 84.3023 23.732C84.9983 22.916 85.3463 21.92 85.3463 20.744V11.312C85.3463 10.208 85.1663 9.40396 84.8063 8.89996C84.4703 8.39596 83.8823 8.14396 83.0423 8.14396V7.38796C83.8103 7.45996 84.5543 7.49596 85.2743 7.49596C87.3623 7.49596 89.1143 7.32796 90.5303 6.99196V22.076Z" fill="black"/>
</svg>
