<svg width="94" height="27" viewBox="0 0 94 27" fill="none" xmlns="http://www.w3.org/2000/svg">
<path d="M31.8988 1.23202C31.0828 1.28002 30.4949 1.37602 30.1349 1.52003C29.7749 1.66402 29.5229 1.94002 29.3789 2.34802C29.2589 2.75602 29.1989 3.41602 29.1989 4.32802V22.184C29.1989 23.096 29.2589 23.756 29.3789 24.164C29.5229 24.572 29.7749 24.848 30.1349 24.992C30.5189 25.136 31.1068 25.232 31.8988 25.28V26C30.5788 25.928 28.6949 25.892 26.2469 25.892C23.6789 25.892 21.7829 25.928 20.5589 26V25.28C21.4229 25.232 22.0469 25.136 22.4309 24.992C22.8389 24.848 23.1149 24.572 23.2589 24.164C23.4029 23.756 23.4749 23.096 23.4749 22.184V3.35602L14.7989 26.036H14.2229L4.50285 2.85202V20.096C4.50285 21.512 4.57486 22.556 4.71886 23.228C4.86286 23.876 5.17486 24.356 5.65486 24.668C6.13486 24.956 6.91486 25.16 7.99486 25.28V26C7.05886 25.928 5.76286 25.892 4.10686 25.892C2.78686 25.892 1.74285 25.928 0.974854 26V25.28C1.76685 25.16 2.34287 24.956 2.70287 24.668C3.08687 24.38 3.33886 23.924 3.45886 23.3C3.60286 22.676 3.67487 21.752 3.67487 20.528V4.32802C3.67487 3.41602 3.60286 2.75602 3.45886 2.34802C3.33886 1.94002 3.08687 1.66402 2.70287 1.52003C2.34287 1.37602 1.76685 1.28002 0.974854 1.23202V0.512024C1.74285 0.584023 2.78686 0.620024 4.10686 0.620024C6.31486 0.620024 8.21086 0.584023 9.79486 0.512024L17.0669 18.044L23.6909 0.620024H26.2469C28.6949 0.620024 30.5788 0.584023 31.8988 0.512024V1.23202Z" fill="black"/>
<path d="M43.8582 23.552C45.8262 23.552 47.4102 22.592 48.6102 20.672L49.2582 20.888C48.7782 22.448 47.9142 23.78 46.6662 24.884C45.4422 25.964 43.9062 26.504 42.0582 26.504C39.5142 26.504 37.4862 25.7 35.9742 24.092C34.4862 22.46 33.7422 20.06 33.7422 16.892C33.7422 13.652 34.5462 11.18 36.1542 9.47602C37.7622 7.74802 39.8982 6.88402 42.5622 6.88402C47.0742 6.88402 49.3302 9.54802 49.3302 14.876H39.2142C39.1902 15.236 39.1782 15.8 39.1782 16.568C39.1782 18.152 39.3942 19.472 39.8262 20.528C40.2822 21.584 40.8582 22.352 41.5542 22.832C42.2742 23.312 43.0422 23.552 43.8582 23.552ZM42.3462 7.64002C41.4822 7.64002 40.7622 8.18002 40.1862 9.26002C39.6342 10.316 39.2862 11.96 39.1422 14.192H44.7942C44.8422 12.296 44.6502 10.736 44.2182 9.51202C43.8102 8.26402 43.1862 7.64002 42.3462 7.64002Z" fill="black"/>
<path d="M64.5959 6.88402C66.4199 6.88402 67.7399 7.35202 68.5559 8.28802C68.9639 8.74402 69.2518 9.33202 69.4198 10.052C69.5878 10.772 69.6719 11.744 69.6719 12.968V22.652C69.6719 23.636 69.8399 24.32 70.1759 24.704C70.5359 25.064 71.1358 25.244 71.9758 25.244V26C69.5758 25.904 67.9919 25.856 67.2239 25.856C66.5039 25.856 64.9439 25.904 62.5439 26V25.244C63.2639 25.244 63.7679 25.064 64.0559 24.704C64.3439 24.32 64.4879 23.636 64.4879 22.652V11.456C64.4879 10.472 64.3199 9.72802 63.9839 9.22402C63.6719 8.72002 63.0959 8.46802 62.2559 8.46802C61.2719 8.46802 60.4319 8.87602 59.7359 9.69202C59.0399 10.484 58.6918 11.468 58.6918 12.644V22.652C58.6918 23.636 58.8359 24.32 59.1239 24.704C59.4119 25.064 59.9158 25.244 60.6358 25.244V26C58.4278 25.904 56.9399 25.856 56.1719 25.856C55.4519 25.856 53.7959 25.904 51.2039 26V25.244C52.0679 25.244 52.6679 25.064 53.0039 24.704C53.3399 24.32 53.5079 23.636 53.5079 22.652V11.312C53.5079 10.208 53.3399 9.40402 53.0039 8.90002C52.6679 8.39602 52.0679 8.14402 51.2039 8.14402V7.38802C51.9719 7.46002 52.7159 7.49603 53.4359 7.49603C55.5719 7.49603 57.3238 7.32803 58.6918 6.99203V10.232C59.7718 8.00002 61.7399 6.88402 64.5959 6.88402Z" fill="black"/>
<path d="M91.2451 22.076C91.2451 23.18 91.4131 23.984 91.7491 24.488C92.1091 24.992 92.7091 25.244 93.5491 25.244V26C92.8051 25.928 92.0612 25.892 91.3172 25.892C89.2292 25.892 87.4771 26.06 86.0611 26.396V23.156C84.9571 25.388 83.0252 26.504 80.2652 26.504C78.4652 26.504 77.1571 26.036 76.3411 25.1C75.9571 24.644 75.6691 24.056 75.4771 23.336C75.3091 22.592 75.2251 21.62 75.2251 20.42V11.312C75.2251 10.208 75.0451 9.40402 74.6851 8.90002C74.3491 8.39602 73.7611 8.14402 72.9211 8.14402V7.38802C73.6651 7.46002 74.4092 7.49603 75.1532 7.49603C77.2412 7.49603 78.9931 7.32803 80.4091 6.99203V21.896C80.4091 22.904 80.5531 23.66 80.8411 24.164C81.1531 24.668 81.7291 24.92 82.5691 24.92C83.5291 24.92 84.3451 24.524 85.0171 23.732C85.7131 22.916 86.0611 21.92 86.0611 20.744V11.312C86.0611 10.208 85.8811 9.40402 85.5211 8.90002C85.1851 8.39602 84.5971 8.14402 83.7571 8.14402V7.38802C84.5251 7.46002 85.2692 7.49603 85.9892 7.49603C88.0772 7.49603 89.8291 7.32803 91.2451 6.99203V22.076Z" fill="black"/>
</svg>
