<svg width="86" height="26" viewBox="0 0 86 26" fill="none" xmlns="http://www.w3.org/2000/svg">
<path d="M31.932 23.74V25H21.96V23.74L23.904 23.704L22.212 5.23601L15.264 20.968H14.148L6.696 5.128L6.012 23.704L7.956 23.74V25H0.0719986V23.74L1.476 23.704L4.932 2.17601L2.952 2.14V0.880005H11.232L17.028 12.652L22.032 0.880005H29.484V2.14L27.576 2.17601L30.528 23.704L31.932 23.74Z" fill="black"/>
<path d="M41.1002 8.26C43.2122 8.26 44.8682 9.028 46.0682 10.564C47.2922 12.076 47.8922 14.128 47.8682 16.72L37.9322 17.044C38.1002 18.46 38.5922 19.54 39.4082 20.284C40.2242 21.028 41.3042 21.4 42.6482 21.4C44.5202 21.4 46.0442 20.884 47.2202 19.852L47.8682 20.428C47.0282 22.036 45.8882 23.296 44.4482 24.208C43.0322 25.096 41.5202 25.54 39.9122 25.54C37.7282 25.54 35.9882 24.82 34.6922 23.38C33.4202 21.916 32.7842 19.948 32.7842 17.476C32.7842 16.012 33.0722 14.56 33.6482 13.12C34.2482 11.68 35.0042 10.48 35.9162 9.52001C36.5402 9.16001 37.3442 8.86 38.3282 8.62C39.3122 8.38 40.2362 8.26 41.1002 8.26ZM42.5402 15.532C42.5162 13.852 42.2762 12.52 41.8202 11.536C41.3642 10.552 40.7162 9.964 39.8762 9.77201C39.2762 10.396 38.7842 11.272 38.4002 12.4C38.0402 13.504 37.8602 14.644 37.8602 15.82V15.928L42.5402 15.532Z" fill="black"/>
<path d="M66.3508 23.956V25H58.6468V23.956L59.9788 23.848V16.252C59.9788 15.196 59.6788 14.38 59.0788 13.804C58.5028 13.228 57.6988 12.928 56.6668 12.904L55.5148 14.092L55.3708 23.848L56.7028 23.956V25H48.9628V23.956L50.2948 23.848L50.1868 10.96L48.8188 11.284L48.4588 10.204L54.1468 8.44001L55.4068 12.472L58.3948 8.18801C60.6748 8.18801 62.3548 8.728 63.4348 9.808C64.5148 10.888 65.0548 12.556 65.0548 14.812V23.848L66.3508 23.956Z" fill="black"/>
<path d="M85.3127 22.588L80.3087 25.432C79.5407 25.024 78.9767 24.472 78.6167 23.776C78.2567 23.056 78.0767 22.144 78.0767 21.04L74.9807 25.54C72.7247 25.54 71.0567 25 69.9767 23.92C68.8967 22.816 68.3567 21.124 68.3567 18.844V9.95201L67.0247 9.844V8.8H73.4327V17.404C73.4327 18.484 73.7087 19.324 74.2607 19.924C74.8367 20.5 75.5927 20.8 76.5287 20.824L78.0767 19.384V9.95201L76.7807 9.844V8.8H83.1527V18.952C83.1527 19.84 83.2007 20.5 83.2967 20.932C83.4167 21.364 83.5967 21.736 83.8367 22.048L84.9167 21.508L85.3127 22.588Z" fill="black"/>
</svg>
